<?xml version="1.0" encoding="UTF-8" standalone="no"?>
<svg
   width="1314"
   height="1014"
   viewBox="0 0 1314 1014"
   fill="none"
   version="1.1"
   id="svg1278"
   sodipodi:docname="default-floorplan.svg"
   inkscape:version="1.2.1 (9c6d41e410, 2022-07-14)"
   xmlns:inkscape="http://www.inkscape.org/namespaces/inkscape"
   xmlns:sodipodi="http://sodipodi.sourceforge.net/DTD/sodipodi-0.dtd"
   xmlns="http://www.w3.org/2000/svg"
   xmlns:svg="http://www.w3.org/2000/svg">
  <sodipodi:namedview
     id="namedview1280"
     pagecolor="#ffffff"
     bordercolor="#000000"
     borderopacity="0.25"
     inkscape:showpageshadow="2"
     inkscape:pageopacity="0.0"
     inkscape:pagecheckerboard="0"
     inkscape:deskcolor="#d1d1d1"
     showgrid="false"
     inkscape:zoom="1.1673538"
     inkscape:cx="516.12459"
     inkscape:cy="329.80575"
     inkscape:window-width="1920"
     inkscape:window-height="1017"
     inkscape:window-x="-8"
     inkscape:window-y="-8"
     inkscape:window-maximized="1"
     inkscape:current-layer="g976" />
  <g
     filter="url(#filter0_di)"
     id="g6" />
  <mask
     id="mask0"
     mask-type="alpha"
     maskUnits="userSpaceOnUse"
     x="57"
     y="29"
     width="1200"
     height="898">
    <rect
       x="57"
       y="29"
       width="1200"
       height="898"
       rx="40"
       fill="#C4C4C4"
       id="rect8" />
  </mask>
  <g
     mask="url(#mask0)"
     id="g976">
    <path
       d="M907 463.5L979.5 524"
       stroke="#E5E4E4"
       stroke-width="2"
       id="path11" />
    <path
       d="M980.5 462.5L907 524.5"
       stroke="#E5E4E4"
       stroke-width="2"
       id="path13" />
    <path
       d="M918.5 525H906.5V463H980V525H966"
       stroke="#E5E4E4"
       stroke-width="2"
       stroke-linecap="round"
       stroke-linejoin="round"
       id="path15" />
    <path
       d="M367.5 374V347V347C381.307 347 392.5 358.193 392.5 372V374"
       stroke="#E0E0E0"
       stroke-width="2"
       id="path17" />
    <path
       d="M615.5 390V363V363C629.307 363 640.5 374.193 640.5 388V390"
       stroke="#E0E0E0"
       stroke-width="2"
       id="path19" />
    <path
       d="M522.5 531L495.5 531V531C495.5 517.193 506.693 506 520.5 506L522.5 506"
       stroke="#E0E0E0"
       stroke-width="2"
       id="path21" />
    <path
       d="M976.5 654L949.5 654V654C949.5 640.193 960.693 629 974.5 629L976.5 629"
       stroke="#E0E0E0"
       stroke-width="2"
       id="path23" />
    <path
       d="M976.5 602L949.5 602V602C949.5 615.807 960.693 627 974.5 627L976.5 627"
       stroke="#E0E0E0"
       stroke-width="2"
       id="path25" />
    <path
       d="M860.5 390V363V363C874.307 363 885.5 374.193 885.5 388V390"
       stroke="#E0E0E0"
       stroke-width="2"
       id="path27" />
    <path
       d="M873.5 431V406V406C886.755 406 897.5 416.745 897.5 430V431"
       stroke="#E0E0E0"
       stroke-width="2"
       id="path29" />
    <path
       d="M921.5 431V406V406C934.755 406 945.5 416.745 945.5 430V431"
       stroke="#E0E0E0"
       stroke-width="2"
       id="path31" />
    <path
       d="M945.5 394L972.5 394V394C972.5 407.807 961.307 419 947.5 419L945.5 419"
       stroke="#E0E0E0"
       stroke-width="2"
       id="path33" />
    <path
       d="M608.5 389V364H607.5C593.693 364 582.5 375.193 582.5 389V389"
       stroke="#E0E0E0"
       stroke-width="2"
       id="path35" />
    <path
       d="M522.5 543L495.5 543V543C495.5 556.807 506.693 568 520.5 568L522.5 568"
       stroke="#E0E0E0"
       stroke-width="2"
       id="path37" />
    <path
       d="M527.5 598L527.5 625V625C541.307 625 552.5 613.807 552.5 600L552.5 598"
       stroke="#E0E0E0"
       stroke-width="2"
       id="path39" />
    <path
       d="M855.5 390V363V363C841.693 363 830.5 374.193 830.5 388V390"
       stroke="#E0E0E0"
       stroke-width="2"
       id="path41" />
    <path
       d="M921.5 431V406V406C908.245 406 897.5 416.745 897.5 430V431"
       stroke="#E0E0E0"
       stroke-width="2"
       id="path43" />
    <path
       d="M361.5 289V374H367.5"
       stroke="#9E9E9E"
       stroke-width="2"
       stroke-linecap="round"
       stroke-linejoin="round"
       id="path45" />
    <path
       d="M 392.5,373.978 H 409.47312 448.5 V 289.5 m 80,0 V 390 H 582 M 611.5,289.5 V 390 m 0,0 H 608 m 3.5,0 h 4.5 m 24,0 h 191"
       stroke="#9e9e9e"
       stroke-width="2"
       stroke-linecap="round"
       stroke-linejoin="round"
       id="path47"
       sodipodi:nodetypes="ccccccccccccccc" />
    <path
       d="M770.5 391V290.5M857.71 290.5V390M862 390H854M886.5 390H945.5M945.5 390V354M945.5 390V393.5"
       stroke="#9E9E9E"
       stroke-width="2"
       stroke-linecap="round"
       stroke-linejoin="round"
       id="path49" />
    <path
       d="M945.337 418V432.128M945.337 463V432.128M980.5 463H872.5V432.128H945.337"
       stroke="#9E9E9E"
       stroke-width="2"
       stroke-linecap="round"
       stroke-linejoin="round"
       id="path51" />
    <path
       d="M187 369.5H228.5V419.5M228.5 444.5V495M228.5 501.5V495M228.5 495H108.5"
       stroke="#9E9E9E"
       stroke-width="2"
       stroke-linecap="round"
       stroke-linejoin="round"
       id="path53" />
    <path
       d="M228 526V631.5H205.5"
       stroke="#9E9E9E"
       stroke-width="2"
       stroke-linecap="round"
       stroke-linejoin="round"
       id="path55" />
    <path
       d="M446.5 538H520.5"
       stroke="#9E9E9E"
       stroke-width="2"
       id="path57" />
    <path
       d="M521.5 598H527.5"
       stroke="#9E9E9E"
       stroke-width="2"
       stroke-linecap="round"
       stroke-linejoin="round"
       id="path59" />
    <path
       d="M551.5 598H582.5V674.5"
       stroke="#9E9E9E"
       stroke-width="2"
       stroke-linecap="round"
       stroke-linejoin="round"
       id="path61" />
    <path
       d="M561.5 432L561.5 448L682.5 448L682.5 432"
       stroke="#9E9E9E"
       stroke-width="2"
       stroke-linecap="round"
       stroke-linejoin="round"
       id="path63" />
    <path
       d="M709.5 432L709.5 448L830.5 448L830.5 432"
       stroke="#9E9E9E"
       stroke-width="2"
       stroke-linecap="round"
       stroke-linejoin="round"
       id="path65" />
    <path
       d="M527.5 361H448.5"
       stroke="#9E9E9E"
       stroke-width="2"
       id="path67" />
    <path
       d="M521.5 673L521.5 568.5M521.5 544.5L521.5 531M521.5 506L521.5 430L447.5 430L447.5 673"
       stroke="#9E9E9E"
       stroke-width="2"
       stroke-linecap="round"
       stroke-linejoin="round"
       id="path69" />
    <path
       d="M343.5 468H264.5M282 585.5H264.5V526M264.5 526V450.5L343.5 449.5M264.5 526H317.5V509.5V544"
       stroke="#9E9E9E"
       stroke-width="2"
       stroke-linecap="round"
       stroke-linejoin="round"
       id="path71" />
    <path
       d="M258.5 360.5V410H361.5V373.5"
       stroke="#9E9E9E"
       stroke-width="2"
       stroke-linecap="round"
       stroke-linejoin="round"
       id="path73" />
    <path
       d="M446.5 441H442.948M417.579 441H343.5V524.221M343.5 524.221H446.5M343.5 524.221V586.258H361.259M378.002 611.476H392.717V672"
       stroke="#9E9E9E"
       stroke-width="2"
       stroke-linecap="round"
       stroke-linejoin="round"
       id="path75" />
    <path
       d="M283 612.5H265.5V671.5"
       stroke="#9E9E9E"
       stroke-width="2"
       stroke-linecap="round"
       stroke-linejoin="round"
       id="path77" />
    <path
       d="M980.5 599.5V572L980.965 467.464C980.984 463.06 984.56 459.5 988.965 459.5H1035.96C1040.39 459.5 1043.98 455.895 1043.96 451.462L1043.54 362.962C1043.52 358.558 1039.94 355 1035.54 355H955C950.582 355 947 351.418 947 347V298C947 293.582 943.418 290 939 290H201.5C197.082 290 193.5 293.582 193.5 298V360.5C193.5 364.918 189.918 368.5 185.5 368.5H116C111.582 368.5 108 372.082 108 376.5V623C108 627.418 111.582 631 116 631H256.5C260.918 631 264.5 634.582 264.5 639V665C264.5 669.418 268.157 673 272.575 673C544.478 673 700.522 673 972.425 673C976.843 673 980.5 669.418 980.5 665V656"
       stroke="#9E9E9E"
       stroke-width="6"
       stroke-linecap="round"
       stroke-linejoin="round"
       id="path79" />
    <path
       d="M561.5 351C561.5 350.448 561.948 350 562.5 350L572.5 350C573.052 350 573.5 350.448 573.5 351L573.5 361.279C573.5 361.71 573.225 362.092 572.816 362.228L571.295 362.735C568.832 363.556 566.168 363.556 563.705 362.735L562.184 362.228C561.775 362.092 561.5 361.71 561.5 361.279L561.5 351Z"
       fill="#E0DCDC"
       id="path81" />
    <path
       d="M561.5 363.487C561.5 363.002 561.976 362.659 562.437 362.812L563.705 363.235C566.168 364.056 568.832 364.056 571.295 363.235L572.563 362.812C573.024 362.659 573.5 363.002 573.5 363.487V363.487C573.5 363.793 573.304 364.065 573.013 364.162L571.295 364.735C568.832 365.556 566.168 365.556 563.705 364.735L561.987 364.162C561.696 364.065 561.5 363.793 561.5 363.487V363.487Z"
       fill="#E0DCDC"
       id="path83" />
    <path
       d="M403.419 504.409C403.068 503.982 403.129 503.352 403.555 503.001L411.276 496.646C411.703 496.295 412.333 496.356 412.684 496.783L419.216 504.72C419.49 505.052 419.52 505.522 419.291 505.887L418.439 507.245C417.059 509.444 415.003 511.137 412.579 512.068L411.082 512.643C410.68 512.798 410.225 512.678 409.951 512.345L403.419 504.409Z"
       fill="#E0DCDC"
       id="path85" />
    <path
       d="M411.354 514.049C411.045 513.674 411.195 513.107 411.648 512.933L412.896 512.453C415.32 511.522 417.376 509.829 418.756 507.63L419.467 506.497C419.725 506.086 420.311 506.048 420.619 506.423V506.423C420.814 506.66 420.835 506.994 420.672 507.254L419.71 508.788C418.329 510.988 416.273 512.68 413.85 513.611L412.159 514.261C411.873 514.371 411.549 514.286 411.354 514.049V514.049Z"
       fill="#E0DCDC"
       id="path87" />
    <path
       d="M387.298 469.587C387.649 470.014 387.588 470.644 387.161 470.995L379.44 477.35C379.014 477.701 378.384 477.64 378.033 477.213L371.5 469.277C371.227 468.944 371.197 468.474 371.425 468.11L372.278 466.751C373.658 464.552 375.714 462.859 378.138 461.928L379.635 461.353C380.037 461.198 380.492 461.318 380.766 461.651L387.298 469.587Z"
       fill="#E0DCDC"
       id="path89" />
    <path
       d="M379.363 459.947C379.672 460.322 379.522 460.889 379.069 461.063L377.82 461.543C375.397 462.474 373.341 464.167 371.961 466.366L371.25 467.499C370.992 467.91 370.406 467.948 370.098 467.573V467.573C369.903 467.336 369.882 467.002 370.044 466.742L371.007 465.208C372.387 463.008 374.443 461.316 376.867 460.385L378.558 459.735C378.844 459.625 379.168 459.71 379.363 459.947V459.947Z"
       fill="#E0DCDC"
       id="path91" />
    <path
       d="M799.5 367C799.5 366.448 799.948 366 800.5 366L810.5 366C811.052 366 811.5 366.448 811.5 367L811.5 377.279C811.5 377.71 811.225 378.092 810.816 378.228L809.295 378.735C806.832 379.556 804.168 379.556 801.705 378.735L800.184 378.228C799.775 378.092 799.5 377.71 799.5 377.279L799.5 367Z"
       fill="#E0DCDC"
       id="path93" />
    <path
       d="M799.5 379.487C799.5 379.002 799.976 378.659 800.437 378.812L801.705 379.235C804.168 380.056 806.832 380.056 809.295 379.235L810.563 378.812C811.024 378.659 811.5 379.002 811.5 379.487V379.487C811.5 379.793 811.304 380.065 811.013 380.162L809.295 380.735C806.832 381.556 804.168 381.556 801.705 380.735L799.987 380.162C799.696 380.065 799.5 379.793 799.5 379.487V379.487Z"
       fill="#E0DCDC"
       id="path95" />
    <path
       d="M907.5 642C906.948 642 906.5 641.552 906.5 641L906.5 631C906.5 630.448 906.948 630 907.5 630L917.779 630C918.21 630 918.592 630.275 918.728 630.684L919.235 632.205C920.056 634.668 920.056 637.332 919.235 639.795L918.728 641.316C918.592 641.725 918.21 642 917.779 642L907.5 642Z"
       fill="#E0DCDC"
       id="path97" />
    <path
       d="M919.987 642C919.502 642 919.159 641.524 919.312 641.063L919.735 639.795C920.556 637.332 920.556 634.668 919.735 632.205L919.312 630.937C919.159 630.476 919.502 630 919.987 630V630C920.293 630 920.565 630.196 920.662 630.487L921.235 632.205C922.056 634.668 922.056 637.332 921.235 639.795L920.662 641.513C920.565 641.804 920.293 642 919.987 642V642Z"
       fill="#E0DCDC"
       id="path99" />
    <path
       d="M927.5 367C927.5 366.448 927.948 366 928.5 366L938.5 366C939.052 366 939.5 366.448 939.5 367L939.5 377.279C939.5 377.71 939.225 378.092 938.816 378.228L937.295 378.735C934.832 379.556 932.168 379.556 929.705 378.735L928.184 378.228C927.775 378.092 927.5 377.71 927.5 377.279L927.5 367Z"
       fill="#E0DCDC"
       id="path101" />
    <path
       d="M927.5 379.487C927.5 379.002 927.976 378.659 928.437 378.812L929.705 379.235C932.168 380.056 934.832 380.056 937.295 379.235L938.563 378.812C939.024 378.659 939.5 379.002 939.5 379.487V379.487C939.5 379.793 939.304 380.065 939.013 380.162L937.295 380.735C934.832 381.556 932.168 381.556 929.705 380.735L927.987 380.162C927.696 380.065 927.5 379.793 927.5 379.487V379.487Z"
       fill="#E0DCDC"
       id="path103" />
    <path
       d="M1011.5 382C1011.5 382.552 1011.05 383 1010.5 383L1000.5 383C999.948 383 999.5 382.552 999.5 382L999.5 371.721C999.5 371.29 999.775 370.908 1000.18 370.772L1001.71 370.265C1004.17 369.444 1006.83 369.444 1009.29 370.265L1010.82 370.772C1011.22 370.908 1011.5 371.29 1011.5 371.721L1011.5 382Z"
       fill="#E0DCDC"
       id="path105" />
    <path
       d="M1011.5 369.513C1011.5 369.998 1011.02 370.341 1010.56 370.188L1009.29 369.765C1006.83 368.944 1004.17 368.944 1001.71 369.765L1000.44 370.188C999.976 370.341 999.5 369.998 999.5 369.513V369.513C999.5 369.207 999.696 368.935 999.987 368.838L1001.71 368.265C1004.17 367.444 1006.83 367.444 1009.29 368.265L1011.01 368.838C1011.3 368.935 1011.5 369.207 1011.5 369.513V369.513Z"
       fill="#E0DCDC"
       id="path107" />
    <path
       d="M426.5 351C426.5 350.448 426.948 350 427.5 350L437.5 350C438.052 350 438.5 350.448 438.5 351L438.5 361.279C438.5 361.71 438.225 362.092 437.816 362.228L436.295 362.735C433.832 363.556 431.168 363.556 428.705 362.735L427.184 362.228C426.775 362.092 426.5 361.71 426.5 361.279L426.5 351Z"
       fill="#E0DCDC"
       id="path109" />
    <path
       d="M426.5 363.487C426.5 363.002 426.976 362.659 427.437 362.812L428.705 363.235C431.168 364.056 433.832 364.056 436.295 363.235L437.563 362.812C438.024 362.659 438.5 363.002 438.5 363.487V363.487C438.5 363.793 438.304 364.065 438.013 364.162L436.295 364.735C433.832 365.556 431.168 365.556 428.705 364.735L426.987 364.162C426.696 364.065 426.5 363.793 426.5 363.487V363.487Z"
       fill="#E0DCDC"
       id="path111" />
    <path
       d="M682.5 360C682.5 359.448 682.948 359 683.5 359L693.5 359C694.052 359 694.5 359.448 694.5 360L694.5 370.279C694.5 370.71 694.225 371.092 693.816 371.228L692.295 371.735C689.832 372.556 687.168 372.556 684.705 371.735L683.184 371.228C682.775 371.092 682.5 370.71 682.5 370.279L682.5 360Z"
       fill="#E0DCDC"
       id="path113" />
    <path
       d="M682.5 372.487C682.5 372.002 682.976 371.659 683.437 371.812L684.705 372.235C687.168 373.056 689.832 373.056 692.295 372.235L693.563 371.812C694.024 371.659 694.5 372.002 694.5 372.487V372.487C694.5 372.793 694.304 373.065 694.013 373.162L692.295 373.735C689.832 374.556 687.168 374.556 684.705 373.735L682.987 373.162C682.696 373.065 682.5 372.793 682.5 372.487V372.487Z"
       fill="#E0DCDC"
       id="path115" />
    <path
       d="M148.5 551C149.052 551 149.5 551.448 149.5 552L149.5 562C149.5 562.552 149.052 563 148.5 563L138.221 563C137.79 563 137.408 562.725 137.272 562.316L136.765 560.795C135.944 558.332 135.944 555.668 136.765 553.205L137.272 551.684C137.408 551.275 137.79 551 138.221 551L148.5 551Z"
       fill="#E0DCDC"
       id="path117" />
    <path
       d="M136.013 551C136.498 551 136.841 551.476 136.688 551.937L136.265 553.205C135.444 555.668 135.444 558.332 136.265 560.795L136.688 562.063C136.841 562.524 136.498 563 136.013 563V563C135.707 563 135.435 562.804 135.338 562.513L134.765 560.795C133.944 558.332 133.944 555.668 134.765 553.205L135.338 551.487C135.435 551.196 135.707 551 136.013 551V551Z"
       fill="#E0DCDC"
       id="path119" />
    <path
       d="M662.5 509C661.948 509 661.5 508.552 661.5 508L661.5 498C661.5 497.448 661.948 497 662.5 497L672.779 497C673.21 497 673.592 497.275 673.728 497.684L674.235 499.205C675.056 501.668 675.056 504.332 674.235 506.795L673.728 508.316C673.592 508.725 673.21 509 672.779 509L662.5 509Z"
       fill="#E0DCDC"
       id="path121" />
    <path
       d="M674.987 509C674.502 509 674.159 508.524 674.312 508.063L674.735 506.795C675.556 504.332 675.556 501.668 674.735 499.205L674.312 497.937C674.159 497.476 674.502 497 674.987 497V497C675.293 497 675.565 497.196 675.662 497.487L676.235 499.205C677.056 501.668 677.056 504.332 676.235 506.795L675.662 508.513C675.565 508.804 675.293 509 674.987 509V509Z"
       fill="#E0DCDC"
       id="path123" />
    <path
       d="M790.5 509C789.948 509 789.5 508.552 789.5 508L789.5 498C789.5 497.448 789.948 497 790.5 497L800.779 497C801.21 497 801.592 497.275 801.728 497.684L802.235 499.205C803.056 501.668 803.056 504.332 802.235 506.795L801.728 508.316C801.592 508.725 801.21 509 800.779 509L790.5 509Z"
       fill="#E0DCDC"
       id="path125" />
    <path
       d="M802.987 509C802.502 509 802.159 508.524 802.312 508.063L802.735 506.795C803.556 504.332 803.556 501.668 802.735 499.205L802.312 497.937C802.159 497.476 802.502 497 802.987 497V497C803.293 497 803.565 497.196 803.662 497.487L804.235 499.205C805.056 501.668 805.056 504.332 804.235 506.795L803.662 508.513C803.565 508.804 803.293 509 802.987 509V509Z"
       fill="#E0DCDC"
       id="path127" />
    <path
       d="M662.5 648C661.948 648 661.5 647.552 661.5 647L661.5 637C661.5 636.448 661.948 636 662.5 636L672.779 636C673.21 636 673.592 636.275 673.728 636.684L674.235 638.205C675.056 640.668 675.056 643.332 674.235 645.795L673.728 647.316C673.592 647.725 673.21 648 672.779 648L662.5 648Z"
       fill="#E0DCDC"
       id="path129" />
    <path
       d="M674.987 648C674.502 648 674.159 647.524 674.312 647.063L674.735 645.795C675.556 643.332 675.556 640.668 674.735 638.205L674.312 636.937C674.159 636.476 674.502 636 674.987 636V636C675.293 636 675.565 636.196 675.662 636.487L676.235 638.205C677.056 640.668 677.056 643.332 676.235 645.795L675.662 647.513C675.565 647.804 675.293 648 674.987 648V648Z"
       fill="#E0DCDC"
       id="path131" />
    <path
       d="M789.5 648C788.948 648 788.5 647.552 788.5 647L788.5 637C788.5 636.448 788.948 636 789.5 636L799.779 636C800.21 636 800.592 636.275 800.728 636.684L801.235 638.205C802.056 640.668 802.056 643.332 801.235 645.795L800.728 647.316C800.592 647.725 800.21 648 799.779 648L789.5 648Z"
       fill="#E0DCDC"
       id="path133" />
    <path
       d="M801.987 648C801.502 648 801.159 647.524 801.312 647.063L801.735 645.795C802.556 643.332 802.556 640.668 801.735 638.205L801.312 636.937C801.159 636.476 801.502 636 801.987 636V636C802.293 636 802.565 636.196 802.662 636.487L803.235 638.205C804.056 640.668 804.056 643.332 803.235 645.795L802.662 647.513C802.565 647.804 802.293 648 801.987 648V648Z"
       fill="#E0DCDC"
       id="path135" />
    <path
       d="M724.5 360C724.5 359.448 724.948 359 725.5 359L735.5 359C736.052 359 736.5 359.448 736.5 360L736.5 370.279C736.5 370.71 736.225 371.092 735.816 371.228L734.295 371.735C731.832 372.556 729.168 372.556 726.705 371.735L725.184 371.228C724.775 371.092 724.5 370.71 724.5 370.279L724.5 360Z"
       fill="#E0DCDC"
       id="path137" />
    <path
       d="M724.5 372.487C724.5 372.002 724.976 371.659 725.437 371.812L726.705 372.235C729.168 373.056 731.832 373.056 734.295 372.235L735.563 371.812C736.024 371.659 736.5 372.002 736.5 372.487V372.487C736.5 372.793 736.304 373.065 736.013 373.162L734.295 373.735C731.832 374.556 729.168 374.556 726.705 373.735L724.987 373.162C724.696 373.065 724.5 372.793 724.5 372.487V372.487Z"
       fill="#E0DCDC"
       id="path139" />
    <path
       d="M662.5 467C661.948 467 661.5 466.552 661.5 466L661.5 456C661.5 455.448 661.948 455 662.5 455L672.779 455C673.21 455 673.592 455.275 673.728 455.684L674.235 457.205C675.056 459.668 675.056 462.332 674.235 464.795L673.728 466.316C673.592 466.725 673.21 467 672.779 467L662.5 467Z"
       fill="#E0DCDC"
       id="path141" />
    <path
       d="M674.987 467C674.502 467 674.159 466.524 674.312 466.063L674.735 464.795C675.556 462.332 675.556 459.668 674.735 457.205L674.312 455.937C674.159 455.476 674.502 455 674.987 455V455C675.293 455 675.565 455.196 675.662 455.487L676.235 457.205C677.056 459.668 677.056 462.332 676.235 464.795L675.662 466.513C675.565 466.804 675.293 467 674.987 467V467Z"
       fill="#E0DCDC"
       id="path143" />
    <path
       d="M790.5 467C789.948 467 789.5 466.552 789.5 466L789.5 456C789.5 455.448 789.948 455 790.5 455L800.779 455C801.21 455 801.592 455.275 801.728 455.684L802.235 457.205C803.056 459.668 803.056 462.332 802.235 464.795L801.728 466.316C801.592 466.725 801.21 467 800.779 467L790.5 467Z"
       fill="#E0DCDC"
       id="path145" />
    <path
       d="M802.987 467C802.502 467 802.159 466.524 802.312 466.063L802.735 464.795C803.556 462.332 803.556 459.668 802.735 457.205L802.312 455.937C802.159 455.476 802.502 455 802.987 455V455C803.293 455 803.565 455.196 803.662 455.487L804.235 457.205C805.056 459.668 805.056 462.332 804.235 464.795L803.662 466.513C803.565 466.804 803.293 467 802.987 467V467Z"
       fill="#E0DCDC"
       id="path147" />
    <path
       d="M662.5 606C661.948 606 661.5 605.552 661.5 605L661.5 595C661.5 594.448 661.948 594 662.5 594L672.779 594C673.21 594 673.592 594.275 673.728 594.684L674.235 596.205C675.056 598.668 675.056 601.332 674.235 603.795L673.728 605.316C673.592 605.725 673.21 606 672.779 606L662.5 606Z"
       fill="#E0DCDC"
       id="path149" />
    <path
       d="M674.987 606C674.502 606 674.159 605.524 674.312 605.063L674.735 603.795C675.556 601.332 675.556 598.668 674.735 596.205L674.312 594.937C674.159 594.476 674.502 594 674.987 594V594C675.293 594 675.565 594.196 675.662 594.487L676.235 596.205C677.056 598.668 677.056 601.332 676.235 603.795L675.662 605.513C675.565 605.804 675.293 606 674.987 606V606Z"
       fill="#E0DCDC"
       id="path151" />
    <path
       d="M789.5 606C788.948 606 788.5 605.552 788.5 605L788.5 595C788.5 594.448 788.948 594 789.5 594L799.779 594C800.21 594 800.592 594.275 800.728 594.684L801.235 596.205C802.056 598.668 802.056 601.332 801.235 603.795L800.728 605.316C800.592 605.725 800.21 606 799.779 606L789.5 606Z"
       fill="#E0DCDC"
       id="path153" />
    <path
       d="M801.987 606C801.502 606 801.159 605.524 801.312 605.063L801.735 603.795C802.556 601.332 802.556 598.668 801.735 596.205L801.312 594.937C801.159 594.476 801.502 594 801.987 594V594C802.293 594 802.565 594.196 802.662 594.487L803.235 596.205C804.056 598.668 804.056 601.332 803.235 603.795L802.662 605.513C802.565 605.804 802.293 606 801.987 606V606Z"
       fill="#E0DCDC"
       id="path155" />
    <path
       d="M715.5 321C715.5 321.552 715.052 322 714.5 322L704.5 322C703.948 322 703.5 321.552 703.5 321L703.5 310.721C703.5 310.29 703.775 309.908 704.184 309.772L705.705 309.265C708.168 308.444 710.832 308.444 713.295 309.265L714.816 309.772C715.225 309.908 715.5 310.29 715.5 310.721L715.5 321Z"
       fill="#E0DCDC"
       id="path157" />
    <path
       d="M715.5 308.513C715.5 308.998 715.024 309.341 714.563 309.188L713.295 308.765C710.832 307.944 708.168 307.944 705.705 308.765L704.437 309.188C703.976 309.341 703.5 308.998 703.5 308.513V308.513C703.5 308.207 703.696 307.935 703.987 307.838L705.705 307.265C708.168 306.444 710.832 306.444 713.295 307.265L715.013 307.838C715.304 307.935 715.5 308.207 715.5 308.513V308.513Z"
       fill="#E0DCDC"
       id="path159" />
    <path
       d="M187.5 584C186.948 584 186.5 583.552 186.5 583L186.5 573C186.5 572.448 186.948 572 187.5 572L197.779 572C198.21 572 198.592 572.275 198.728 572.684L199.235 574.205C200.056 576.668 200.056 579.332 199.235 581.795L198.728 583.316C198.592 583.725 198.21 584 197.779 584L187.5 584Z"
       fill="#E0DCDC"
       id="path161" />
    <path
       d="M199.987 584C199.502 584 199.159 583.524 199.312 583.063L199.735 581.795C200.556 579.332 200.556 576.668 199.735 574.205L199.312 572.937C199.159 572.476 199.502 572 199.987 572V572C200.293 572 200.565 572.196 200.662 572.487L201.235 574.205C202.056 576.668 202.056 579.332 201.235 581.795L200.662 583.513C200.565 583.804 200.293 584 199.987 584V584Z"
       fill="#E0DCDC"
       id="path163" />
    <path
       d="M623.5 476C624.052 476 624.5 476.448 624.5 477L624.5 487C624.5 487.552 624.052 488 623.5 488L613.221 488C612.79 488 612.408 487.725 612.272 487.316L611.765 485.795C610.944 483.332 610.944 480.668 611.765 478.205L612.272 476.684C612.408 476.275 612.79 476 613.221 476L623.5 476Z"
       fill="#E0DCDC"
       id="path165" />
    <path
       d="M611.013 476C611.498 476 611.841 476.476 611.688 476.937L611.265 478.205C610.444 480.668 610.444 483.332 611.265 485.795L611.688 487.063C611.841 487.524 611.498 488 611.013 488V488C610.707 488 610.435 487.804 610.338 487.513L609.765 485.795C608.944 483.332 608.944 480.668 609.765 478.205L610.338 476.487C610.435 476.196 610.707 476 611.013 476V476Z"
       fill="#E0DCDC"
       id="path167" />
    <path
       d="M751.5 476C752.052 476 752.5 476.448 752.5 477L752.5 487C752.5 487.552 752.052 488 751.5 488L741.221 488C740.79 488 740.408 487.725 740.272 487.316L739.765 485.795C738.944 483.332 738.944 480.668 739.765 478.205L740.272 476.684C740.408 476.275 740.79 476 741.221 476L751.5 476Z"
       fill="#E0DCDC"
       id="path169" />
    <path
       d="M739.013 476C739.498 476 739.841 476.476 739.688 476.937L739.265 478.205C738.444 480.668 738.444 483.332 739.265 485.795L739.688 487.063C739.841 487.524 739.498 488 739.013 488V488C738.707 488 738.435 487.804 738.338 487.513L737.765 485.795C736.944 483.332 736.944 480.668 737.765 478.205L738.338 476.487C738.435 476.196 738.707 476 739.013 476V476Z"
       fill="#E0DCDC"
       id="path171" />
    <path
       d="M623.5 615C624.052 615 624.5 615.448 624.5 616L624.5 626C624.5 626.552 624.052 627 623.5 627L613.221 627C612.79 627 612.408 626.725 612.272 626.316L611.765 624.795C610.944 622.332 610.944 619.668 611.765 617.205L612.272 615.684C612.408 615.275 612.79 615 613.221 615L623.5 615Z"
       fill="#E0DCDC"
       id="path173" />
    <path
       d="M611.013 615C611.498 615 611.841 615.476 611.688 615.937L611.265 617.205C610.444 619.668 610.444 622.332 611.265 624.795L611.688 626.063C611.841 626.524 611.498 627 611.013 627V627C610.707 627 610.435 626.804 610.338 626.513L609.765 624.795C608.944 622.332 608.944 619.668 609.765 617.205L610.338 615.487C610.435 615.196 610.707 615 611.013 615V615Z"
       fill="#E0DCDC"
       id="path175" />
    <path
       d="M750.5 615C751.052 615 751.5 615.448 751.5 616L751.5 626C751.5 626.552 751.052 627 750.5 627L740.221 627C739.79 627 739.408 626.725 739.272 626.316L738.765 624.795C737.944 622.332 737.944 619.668 738.765 617.205L739.272 615.684C739.408 615.275 739.79 615 740.221 615L750.5 615Z"
       fill="#E0DCDC"
       id="path177" />
    <path
       d="M738.013 615C738.498 615 738.841 615.476 738.688 615.937L738.265 617.205C737.444 619.668 737.444 622.332 738.265 624.795L738.688 626.063C738.841 626.524 738.498 627 738.013 627V627C737.707 627 737.435 626.804 737.338 626.513L736.765 624.795C735.944 622.332 735.944 619.668 736.765 617.205L737.338 615.487C737.435 615.196 737.707 615 738.013 615V615Z"
       fill="#E0DCDC"
       id="path179" />
    <path
       d="M673.5 321C673.5 321.552 673.052 322 672.5 322L662.5 322C661.948 322 661.5 321.552 661.5 321L661.5 310.721C661.5 310.29 661.775 309.908 662.184 309.772L663.705 309.265C666.168 308.444 668.832 308.444 671.295 309.265L672.816 309.772C673.225 309.908 673.5 310.29 673.5 310.721L673.5 321Z"
       fill="#E0DCDC"
       id="path181" />
    <path
       d="M673.5 308.513C673.5 308.998 673.024 309.341 672.563 309.188L671.295 308.765C668.832 307.944 666.168 307.944 663.705 308.765L662.437 309.188C661.976 309.341 661.5 308.998 661.5 308.513V308.513C661.5 308.207 661.696 307.935 661.987 307.838L663.705 307.265C666.168 306.444 668.832 306.444 671.295 307.265L673.013 307.838C673.304 307.935 673.5 308.207 673.5 308.513V308.513Z"
       fill="#E0DCDC"
       id="path183" />
    <path
       d="M173.5 520C173.5 520.552 173.052 521 172.5 521L162.5 521C161.948 521 161.5 520.552 161.5 520L161.5 509.721C161.5 509.29 161.775 508.908 162.184 508.772L163.705 508.265C166.168 507.444 168.832 507.444 171.295 508.265L172.816 508.772C173.225 508.908 173.5 509.29 173.5 509.721L173.5 520Z"
       fill="#E0DCDC"
       id="path185" />
    <path
       d="M173.5 507.513C173.5 507.998 173.024 508.341 172.563 508.188L171.295 507.765C168.832 506.944 166.168 506.944 163.705 507.765L162.437 508.188C161.976 508.341 161.5 507.998 161.5 507.513V507.513C161.5 507.207 161.696 506.935 161.987 506.838L163.705 506.265C166.168 505.444 168.832 505.444 171.295 506.265L173.013 506.838C173.304 506.935 173.5 507.207 173.5 507.513V507.513Z"
       fill="#E0DCDC"
       id="path187" />
    <path
       d="M187.5 542C186.948 542 186.5 541.552 186.5 541L186.5 531C186.5 530.448 186.948 530 187.5 530L197.779 530C198.21 530 198.592 530.275 198.728 530.684L199.235 532.205C200.056 534.668 200.056 537.332 199.235 539.795L198.728 541.316C198.592 541.725 198.21 542 197.779 542L187.5 542Z"
       fill="#E0DCDC"
       id="path189" />
    <path
       d="M199.987 542C199.502 542 199.159 541.524 199.312 541.063L199.735 539.795C200.556 537.332 200.556 534.668 199.735 532.205L199.312 530.937C199.159 530.476 199.502 530 199.987 530V530C200.293 530 200.565 530.196 200.662 530.487L201.235 532.205C202.056 534.668 202.056 537.332 201.235 539.795L200.662 541.513C200.565 541.804 200.293 542 199.987 542V542Z"
       fill="#E0DCDC"
       id="path191" />
    <path
       d="M623.5 518C624.052 518 624.5 518.448 624.5 519L624.5 529C624.5 529.552 624.052 530 623.5 530L613.221 530C612.79 530 612.408 529.725 612.272 529.316L611.765 527.795C610.944 525.332 610.944 522.668 611.765 520.205L612.272 518.684C612.408 518.275 612.79 518 613.221 518L623.5 518Z"
       fill="#E0DCDC"
       id="path193" />
    <path
       d="M611.013 518C611.498 518 611.841 518.476 611.688 518.937L611.265 520.205C610.444 522.668 610.444 525.332 611.265 527.795L611.688 529.063C611.841 529.524 611.498 530 611.013 530V530C610.707 530 610.435 529.804 610.338 529.513L609.765 527.795C608.944 525.332 608.944 522.668 609.765 520.205L610.338 518.487C610.435 518.196 610.707 518 611.013 518V518Z"
       fill="#E0DCDC"
       id="path195" />
    <path
       d="M751.5 518C752.052 518 752.5 518.448 752.5 519L752.5 529C752.5 529.552 752.052 530 751.5 530L741.221 530C740.79 530 740.408 529.725 740.272 529.316L739.765 527.795C738.944 525.332 738.944 522.668 739.765 520.205L740.272 518.684C740.408 518.275 740.79 518 741.221 518L751.5 518Z"
       fill="#E0DCDC"
       id="path197" />
    <path
       d="M739.013 518C739.498 518 739.841 518.476 739.688 518.937L739.265 520.205C738.444 522.668 738.444 525.332 739.265 527.795L739.688 529.063C739.841 529.524 739.498 530 739.013 530V530C738.707 530 738.435 529.804 738.338 529.513L737.765 527.795C736.944 525.332 736.944 522.668 737.765 520.205L738.338 518.487C738.435 518.196 738.707 518 739.013 518V518Z"
       fill="#E0DCDC"
       id="path199" />
    <path
       d="M623.5 657C624.052 657 624.5 657.448 624.5 658L624.5 668C624.5 668.552 624.052 669 623.5 669L613.221 669C612.79 669 612.408 668.725 612.272 668.316L611.765 666.795C610.944 664.332 610.944 661.668 611.765 659.205L612.272 657.684C612.408 657.275 612.79 657 613.221 657L623.5 657Z"
       fill="#E0DCDC"
       id="path201" />
    <path
       d="M611.013 657C611.498 657 611.841 657.476 611.688 657.937L611.265 659.205C610.444 661.668 610.444 664.332 611.265 666.795L611.688 668.063C611.841 668.524 611.498 669 611.013 669V669C610.707 669 610.435 668.804 610.338 668.513L609.765 666.795C608.944 664.332 608.944 661.668 609.765 659.205L610.338 657.487C610.435 657.196 610.707 657 611.013 657V657Z"
       fill="#E0DCDC"
       id="path203" />
    <path
       d="M750.5 657C751.052 657 751.5 657.448 751.5 658L751.5 668C751.5 668.552 751.052 669 750.5 669L740.221 669C739.79 669 739.408 668.725 739.272 668.316L738.765 666.795C737.944 664.332 737.944 661.668 738.765 659.205L739.272 657.684C739.408 657.275 739.79 657 740.221 657L750.5 657Z"
       fill="#E0DCDC"
       id="path205" />
    <path
       d="M738.013 657C738.498 657 738.841 657.476 738.688 657.937L738.265 659.205C737.444 661.668 737.444 664.332 738.265 666.795L738.688 668.063C738.841 668.524 738.498 669 738.013 669V669C737.707 669 737.435 668.804 737.338 668.513L736.765 666.795C735.944 664.332 735.944 661.668 736.765 659.205L737.338 657.487C737.435 657.196 737.707 657 738.013 657V657Z"
       fill="#E0DCDC"
       id="path207" />
    <path
       d="M655.5 334C656.052 334 656.5 334.448 656.5 335L656.5 345C656.5 345.552 656.052 346 655.5 346L645.221 346C644.79 346 644.408 345.725 644.272 345.316L643.765 343.795C642.944 341.332 642.944 338.668 643.765 336.205L644.272 334.684C644.408 334.275 644.79 334 645.221 334L655.5 334Z"
       fill="#E0DCDC"
       id="path209" />
    <path
       d="M643.013 334C643.498 334 643.841 334.476 643.688 334.937L643.265 336.205C642.444 338.668 642.444 341.332 643.265 343.795L643.688 345.063C643.841 345.524 643.498 346 643.013 346V346C642.707 346 642.435 345.804 642.338 345.513L641.765 343.795C640.944 341.332 640.944 338.668 641.765 336.205L642.338 334.487C642.435 334.196 642.707 334 643.013 334V334Z"
       fill="#E0DCDC"
       id="path211" />
    <path
       d="M743.5 346C742.948 346 742.5 345.552 742.5 345L742.5 335C742.5 334.448 742.948 334 743.5 334L753.779 334C754.21 334 754.592 334.275 754.728 334.684L755.235 336.205C756.056 338.668 756.056 341.332 755.235 343.795L754.728 345.316C754.592 345.725 754.21 346 753.779 346L743.5 346Z"
       fill="#E0DCDC"
       id="path213" />
    <path
       d="M755.987 346C755.502 346 755.159 345.524 755.312 345.063L755.735 343.795C756.556 341.332 756.556 338.668 755.735 336.205L755.312 334.937C755.159 334.476 755.502 334 755.987 334V334C756.293 334 756.565 334.196 756.662 334.487L757.235 336.205C758.056 338.668 758.056 341.332 757.235 343.795L756.662 345.513C756.565 345.804 756.293 346 755.987 346V346Z"
       fill="#E0DCDC"
       id="path215" />
    <path
       d="M540.5 351C540.5 350.448 540.948 350 541.5 350L551.5 350C552.052 350 552.5 350.448 552.5 351L552.5 361.279C552.5 361.71 552.225 362.092 551.816 362.228L550.295 362.735C547.832 363.556 545.168 363.556 542.705 362.735L541.184 362.228C540.775 362.092 540.5 361.71 540.5 361.279L540.5 351Z"
       fill="#E0DCDC"
       id="path217" />
    <path
       d="M540.5 363.487C540.5 363.002 540.976 362.659 541.437 362.812L542.705 363.235C545.168 364.056 547.832 364.056 550.295 363.235L551.563 362.812C552.024 362.659 552.5 363.002 552.5 363.487V363.487C552.5 363.793 552.304 364.065 552.013 364.162L550.295 364.735C547.832 365.556 545.168 365.556 542.705 364.735L540.987 364.162C540.696 364.065 540.5 363.793 540.5 363.487V363.487Z"
       fill="#E0DCDC"
       id="path219" />
    <path
       d="M379.272 498.811C379.595 498.363 380.22 498.262 380.668 498.585L388.78 504.433C389.228 504.756 389.329 505.381 389.006 505.829L382.995 514.167C382.743 514.516 382.296 514.665 381.885 514.537L380.355 514.058C377.876 513.284 375.716 511.727 374.198 509.62L373.261 508.319C373.009 507.97 373.009 507.499 373.261 507.15L379.272 498.811Z"
       fill="#E0DCDC"
       id="path221" />
    <path
       d="M371.97 508.941C372.254 508.547 372.84 508.548 373.124 508.942L373.906 510.027C375.424 512.133 377.584 513.69 380.062 514.465L381.339 514.864C381.802 515.008 381.988 515.565 381.704 515.959V515.959C381.525 516.207 381.207 516.313 380.915 516.222L379.185 515.681C376.707 514.907 374.547 513.35 373.029 511.243L371.97 509.773C371.79 509.525 371.79 509.19 371.97 508.941V508.941Z"
       fill="#E0DCDC"
       id="path223" />
    <path
       d="M411.445 475.185C411.122 475.633 410.497 475.734 410.049 475.411L401.937 469.564C401.489 469.241 401.388 468.616 401.711 468.168L407.722 459.829C407.974 459.48 408.42 459.331 408.831 459.459L410.362 459.938C412.84 460.712 415.001 462.269 416.519 464.376L417.456 465.677C417.708 466.026 417.708 466.497 417.456 466.846L411.445 475.185Z"
       fill="#E0DCDC"
       id="path225" />
    <path
       d="M418.747 465.055C418.463 465.449 417.877 465.449 417.593 465.055L416.811 463.97C415.293 461.863 413.133 460.306 410.654 459.531L409.378 459.133C408.914 458.988 408.729 458.431 409.013 458.037V458.037C409.192 457.789 409.51 457.683 409.802 457.774L411.532 458.315C414.01 459.089 416.17 460.646 417.688 462.753L418.747 464.223C418.926 464.471 418.926 464.806 418.747 465.055V465.055Z"
       fill="#E0DCDC"
       id="path227" />
    <path
       d="M778.5 367C778.5 366.448 778.948 366 779.5 366L789.5 366C790.052 366 790.5 366.448 790.5 367L790.5 377.279C790.5 377.71 790.225 378.092 789.816 378.228L788.295 378.735C785.832 379.556 783.168 379.556 780.705 378.735L779.184 378.228C778.775 378.092 778.5 377.71 778.5 377.279L778.5 367Z"
       fill="#E0DCDC"
       id="path229" />
    <path
       d="M778.5 379.487C778.5 379.002 778.976 378.659 779.437 378.812L780.705 379.235C783.168 380.056 785.832 380.056 788.295 379.235L789.563 378.812C790.024 378.659 790.5 379.002 790.5 379.487V379.487C790.5 379.793 790.304 380.065 790.013 380.162L788.295 380.735C785.832 381.556 783.168 381.556 780.705 380.735L778.987 380.162C778.696 380.065 778.5 379.793 778.5 379.487V379.487Z"
       fill="#E0DCDC"
       id="path231" />
    <path
       d="M907.5 663C906.948 663 906.5 662.552 906.5 662L906.5 652C906.5 651.448 906.948 651 907.5 651L917.779 651C918.21 651 918.592 651.275 918.728 651.684L919.235 653.205C920.056 655.668 920.056 658.332 919.235 660.795L918.728 662.316C918.592 662.725 918.21 663 917.779 663L907.5 663Z"
       fill="#E0DCDC"
       id="path233" />
    <path
       d="M919.987 663C919.502 663 919.159 662.524 919.312 662.063L919.735 660.795C920.556 658.332 920.556 655.668 919.735 653.205L919.312 651.937C919.159 651.476 919.502 651 919.987 651V651C920.293 651 920.565 651.196 920.662 651.487L921.235 653.205C922.056 655.668 922.056 658.332 921.235 660.795L920.662 662.513C920.565 662.804 920.293 663 919.987 663V663Z"
       fill="#E0DCDC"
       id="path235" />
    <path
       d="M906.5 367C906.5 366.448 906.948 366 907.5 366L917.5 366C918.052 366 918.5 366.448 918.5 367L918.5 377.279C918.5 377.71 918.225 378.092 917.816 378.228L916.295 378.735C913.832 379.556 911.168 379.556 908.705 378.735L907.184 378.228C906.775 378.092 906.5 377.71 906.5 377.279L906.5 367Z"
       fill="#E0DCDC"
       id="path237" />
    <path
       d="M906.5 379.487C906.5 379.002 906.976 378.659 907.437 378.812L908.705 379.235C911.168 380.056 913.832 380.056 916.295 379.235L917.563 378.812C918.024 378.659 918.5 379.002 918.5 379.487V379.487C918.5 379.793 918.304 380.065 918.013 380.162L916.295 380.735C913.832 381.556 911.168 381.556 908.705 380.735L906.987 380.162C906.696 380.065 906.5 379.793 906.5 379.487V379.487Z"
       fill="#E0DCDC"
       id="path239" />
    <path
       d="M1032.5 382C1032.5 382.552 1032.05 383 1031.5 383L1021.5 383C1020.95 383 1020.5 382.552 1020.5 382L1020.5 371.721C1020.5 371.29 1020.78 370.908 1021.18 370.772L1022.71 370.265C1025.17 369.444 1027.83 369.444 1030.29 370.265L1031.82 370.772C1032.22 370.908 1032.5 371.29 1032.5 371.721L1032.5 382Z"
       fill="#E0DCDC"
       id="path241" />
    <path
       d="M1032.5 369.513C1032.5 369.998 1032.02 370.341 1031.56 370.188L1030.29 369.765C1027.83 368.944 1025.17 368.944 1022.71 369.765L1021.44 370.188C1020.98 370.341 1020.5 369.998 1020.5 369.513V369.513C1020.5 369.207 1020.7 368.935 1020.99 368.838L1022.71 368.265C1025.17 367.444 1027.83 367.444 1030.29 368.265L1032.01 368.838C1032.3 368.935 1032.5 369.207 1032.5 369.513V369.513Z"
       fill="#E0DCDC"
       id="path243" />
    <path
       d="M405.5 351C405.5 350.448 405.948 350 406.5 350L416.5 350C417.052 350 417.5 350.448 417.5 351L417.5 361.279C417.5 361.71 417.225 362.092 416.816 362.228L415.295 362.735C412.832 363.556 410.168 363.556 407.705 362.735L406.184 362.228C405.775 362.092 405.5 361.71 405.5 361.279L405.5 351Z"
       fill="#E0DCDC"
       id="path245" />
    <path
       d="M405.5 363.487C405.5 363.002 405.976 362.659 406.437 362.812L407.705 363.235C410.168 364.056 412.832 364.056 415.295 363.235L416.563 362.812C417.024 362.659 417.5 363.002 417.5 363.487V363.487C417.5 363.793 417.304 364.065 417.013 364.162L415.295 364.735C412.832 365.556 410.168 365.556 407.705 364.735L405.987 364.162C405.696 364.065 405.5 363.793 405.5 363.487V363.487Z"
       fill="#E0DCDC"
       id="path247" />
    <path
       d="M661.5 360C661.5 359.448 661.948 359 662.5 359L672.5 359C673.052 359 673.5 359.448 673.5 360L673.5 370.279C673.5 370.71 673.225 371.092 672.816 371.228L671.295 371.735C668.832 372.556 666.168 372.556 663.705 371.735L662.184 371.228C661.775 371.092 661.5 370.71 661.5 370.279L661.5 360Z"
       fill="#E0DCDC"
       id="path249" />
    <path
       d="M661.5 372.487C661.5 372.002 661.976 371.659 662.437 371.812L663.705 372.235C666.168 373.056 668.832 373.056 671.295 372.235L672.563 371.812C673.024 371.659 673.5 372.002 673.5 372.487V372.487C673.5 372.793 673.304 373.065 673.013 373.162L671.295 373.735C668.832 374.556 666.168 374.556 663.705 373.735L661.987 373.162C661.696 373.065 661.5 372.793 661.5 372.487V372.487Z"
       fill="#E0DCDC"
       id="path251" />
    <path
       d="M161.5 591C161.5 590.448 161.948 590 162.5 590L172.5 590C173.052 590 173.5 590.448 173.5 591L173.5 601.279C173.5 601.71 173.225 602.092 172.816 602.228L171.295 602.735C168.832 603.556 166.168 603.556 163.705 602.735L162.184 602.228C161.775 602.092 161.5 601.71 161.5 601.279L161.5 591Z"
       fill="#E0DCDC"
       id="path253" />
    <path
       d="M161.5 603.487C161.5 603.002 161.976 602.659 162.437 602.812L163.705 603.235C166.168 604.056 168.832 604.056 171.295 603.235L172.563 602.812C173.024 602.659 173.5 603.002 173.5 603.487V603.487C173.5 603.793 173.304 604.065 173.013 604.162L171.295 604.735C168.832 605.556 166.168 605.556 163.705 604.735L161.987 604.162C161.696 604.065 161.5 603.793 161.5 603.487V603.487Z"
       fill="#E0DCDC"
       id="path255" />
    <path
       d="M148.5 530C149.052 530 149.5 530.448 149.5 531L149.5 541C149.5 541.552 149.052 542 148.5 542L138.221 542C137.79 542 137.408 541.725 137.272 541.316L136.765 539.795C135.944 537.332 135.944 534.668 136.765 532.205L137.272 530.684C137.408 530.275 137.79 530 138.221 530L148.5 530Z"
       fill="#E0DCDC"
       id="path257" />
    <path
       d="M136.013 530C136.498 530 136.841 530.476 136.688 530.937L136.265 532.205C135.444 534.668 135.444 537.332 136.265 539.795L136.688 541.063C136.841 541.524 136.498 542 136.013 542V542C135.707 542 135.435 541.804 135.338 541.513L134.765 539.795C133.944 537.332 133.944 534.668 134.765 532.205L135.338 530.487C135.435 530.196 135.707 530 136.013 530V530Z"
       fill="#E0DCDC"
       id="path259" />
    <path
       d="M662.5 530C661.948 530 661.5 529.552 661.5 529L661.5 519C661.5 518.448 661.948 518 662.5 518L672.779 518C673.21 518 673.592 518.275 673.728 518.684L674.235 520.205C675.056 522.668 675.056 525.332 674.235 527.795L673.728 529.316C673.592 529.725 673.21 530 672.779 530L662.5 530Z"
       fill="#E0DCDC"
       id="path261" />
    <path
       d="M674.987 530C674.502 530 674.159 529.524 674.312 529.063L674.735 527.795C675.556 525.332 675.556 522.668 674.735 520.205L674.312 518.937C674.159 518.476 674.502 518 674.987 518V518C675.293 518 675.565 518.196 675.662 518.487L676.235 520.205C677.056 522.668 677.056 525.332 676.235 527.795L675.662 529.513C675.565 529.804 675.293 530 674.987 530V530Z"
       fill="#E0DCDC"
       id="path263" />
    <path
       d="M662.5 669C661.948 669 661.5 668.552 661.5 668L661.5 658C661.5 657.448 661.948 657 662.5 657L672.779 657C673.21 657 673.592 657.275 673.728 657.684L674.235 659.205C675.056 661.668 675.056 664.332 674.235 666.795L673.728 668.316C673.592 668.725 673.21 669 672.779 669L662.5 669Z"
       fill="#E0DCDC"
       id="path269" />
    <path
       d="M674.987 669C674.502 669 674.159 668.524 674.312 668.063L674.735 666.795C675.556 664.332 675.556 661.668 674.735 659.205L674.312 657.937C674.159 657.476 674.502 657 674.987 657V657C675.293 657 675.565 657.196 675.662 657.487L676.235 659.205C677.056 661.668 677.056 664.332 676.235 666.795L675.662 668.513C675.565 668.804 675.293 669 674.987 669V669Z"
       fill="#E0DCDC"
       id="path271" />
    <path
       d="M789.5 669C788.948 669 788.5 668.552 788.5 668L788.5 658C788.5 657.448 788.948 657 789.5 657L799.779 657C800.21 657 800.592 657.275 800.728 657.684L801.235 659.205C802.056 661.668 802.056 664.332 801.235 666.795L800.728 668.316C800.592 668.725 800.21 669 799.779 669L789.5 669Z"
       fill="#E0DCDC"
       id="path273" />
    <path
       d="M801.987 669C801.502 669 801.159 668.524 801.312 668.063L801.735 666.795C802.556 664.332 802.556 661.668 801.735 659.205L801.312 657.937C801.159 657.476 801.502 657 801.987 657V657C802.293 657 802.565 657.196 802.662 657.487L803.235 659.205C804.056 661.668 804.056 664.332 803.235 666.795L802.662 668.513C802.565 668.804 802.293 669 801.987 669V669Z"
       fill="#E0DCDC"
       id="path275" />
    <path
       d="M703.5 360C703.5 359.448 703.948 359 704.5 359L714.5 359C715.052 359 715.5 359.448 715.5 360L715.5 370.279C715.5 370.71 715.225 371.092 714.816 371.228L713.295 371.735C710.832 372.556 708.168 372.556 705.705 371.735L704.184 371.228C703.775 371.092 703.5 370.71 703.5 370.279L703.5 360Z"
       fill="#E0DCDC"
       id="path277" />
    <path
       d="M703.5 372.487C703.5 372.002 703.976 371.659 704.437 371.812L705.705 372.235C708.168 373.056 710.832 373.056 713.295 372.235L714.563 371.812C715.024 371.659 715.5 372.002 715.5 372.487V372.487C715.5 372.793 715.304 373.065 715.013 373.162L713.295 373.735C710.832 374.556 708.168 374.556 705.705 373.735L703.987 373.162C703.696 373.065 703.5 372.793 703.5 372.487V372.487Z"
       fill="#E0DCDC"
       id="path279" />
    <path
       d="M148.5 572C149.052 572 149.5 572.448 149.5 573L149.5 583C149.5 583.552 149.052 584 148.5 584L138.221 584C137.79 584 137.408 583.725 137.272 583.316L136.765 581.795C135.944 579.332 135.944 576.668 136.765 574.205L137.272 572.684C137.408 572.275 137.79 572 138.221 572L148.5 572Z"
       fill="#E0DCDC"
       id="path281" />
    <path
       d="M136.013 572C136.498 572 136.841 572.476 136.688 572.937L136.265 574.205C135.444 576.668 135.444 579.332 136.265 581.795L136.688 583.063C136.841 583.524 136.498 584 136.013 584V584C135.707 584 135.435 583.804 135.338 583.513L134.765 581.795C133.944 579.332 133.944 576.668 134.765 574.205L135.338 572.487C135.435 572.196 135.707 572 136.013 572V572Z"
       fill="#E0DCDC"
       id="path283" />
    <path
       d="M662.5 488C661.948 488 661.5 487.552 661.5 487L661.5 477C661.5 476.448 661.948 476 662.5 476L672.779 476C673.21 476 673.592 476.275 673.728 476.684L674.235 478.205C675.056 480.668 675.056 483.332 674.235 485.795L673.728 487.316C673.592 487.725 673.21 488 672.779 488L662.5 488Z"
       fill="#E0DCDC"
       id="path285" />
    <path
       d="M674.987 488C674.502 488 674.159 487.524 674.312 487.063L674.735 485.795C675.556 483.332 675.556 480.668 674.735 478.205L674.312 476.937C674.159 476.476 674.502 476 674.987 476V476C675.293 476 675.565 476.196 675.662 476.487L676.235 478.205C677.056 480.668 677.056 483.332 676.235 485.795L675.662 487.513C675.565 487.804 675.293 488 674.987 488V488Z"
       fill="#E0DCDC"
       id="path287" />
    <path
       d="M790.5 488C789.948 488 789.5 487.552 789.5 487L789.5 477C789.5 476.448 789.948 476 790.5 476L800.779 476C801.21 476 801.592 476.275 801.728 476.684L802.235 478.205C803.056 480.668 803.056 483.332 802.235 485.795L801.728 487.316C801.592 487.725 801.21 488 800.779 488L790.5 488Z"
       fill="#E0DCDC"
       id="path289" />
    <path
       d="M802.987 488C802.502 488 802.159 487.524 802.312 487.063L802.735 485.795C803.556 483.332 803.556 480.668 802.735 478.205L802.312 476.937C802.159 476.476 802.502 476 802.987 476V476C803.293 476 803.565 476.196 803.662 476.487L804.235 478.205C805.056 480.668 805.056 483.332 804.235 485.795L803.662 487.513C803.565 487.804 803.293 488 802.987 488V488Z"
       fill="#E0DCDC"
       id="path291" />
    <path
       d="M662.5 627C661.948 627 661.5 626.552 661.5 626L661.5 616C661.5 615.448 661.948 615 662.5 615L672.779 615C673.21 615 673.592 615.275 673.728 615.684L674.235 617.205C675.056 619.668 675.056 622.332 674.235 624.795L673.728 626.316C673.592 626.725 673.21 627 672.779 627L662.5 627Z"
       fill="#E0DCDC"
       id="path293" />
    <path
       d="M674.987 627C674.502 627 674.159 626.524 674.312 626.063L674.735 624.795C675.556 622.332 675.556 619.668 674.735 617.205L674.312 615.937C674.159 615.476 674.502 615 674.987 615V615C675.293 615 675.565 615.196 675.662 615.487L676.235 617.205C677.056 619.668 677.056 622.332 676.235 624.795L675.662 626.513C675.565 626.804 675.293 627 674.987 627V627Z"
       fill="#E0DCDC"
       id="path295" />
    <path
       d="M789.5 627C788.948 627 788.5 626.552 788.5 626L788.5 616C788.5 615.448 788.948 615 789.5 615L799.779 615C800.21 615 800.592 615.275 800.728 615.684L801.235 617.205C802.056 619.668 802.056 622.332 801.235 624.795L800.728 626.316C800.592 626.725 800.21 627 799.779 627L789.5 627Z"
       fill="#E0DCDC"
       id="path297" />
    <path
       d="M801.987 627C801.502 627 801.159 626.524 801.312 626.063L801.735 624.795C802.556 622.332 802.556 619.668 801.735 617.205L801.312 615.937C801.159 615.476 801.502 615 801.987 615V615C802.293 615 802.565 615.196 802.662 615.487L803.235 617.205C804.056 619.668 804.056 622.332 803.235 624.795L802.662 626.513C802.565 626.804 802.293 627 801.987 627V627Z"
       fill="#E0DCDC"
       id="path299" />
    <path
       d="M736.5 321C736.5 321.552 736.052 322 735.5 322L725.5 322C724.948 322 724.5 321.552 724.5 321L724.5 310.721C724.5 310.29 724.775 309.908 725.184 309.772L726.705 309.265C729.168 308.444 731.832 308.444 734.295 309.265L735.816 309.772C736.225 309.908 736.5 310.29 736.5 310.721L736.5 321Z"
       fill="#E0DCDC"
       id="path301" />
    <path
       d="M736.5 308.513C736.5 308.998 736.024 309.341 735.563 309.188L734.295 308.765C731.832 307.944 729.168 307.944 726.705 308.765L725.437 309.188C724.976 309.341 724.5 308.998 724.5 308.513V308.513C724.5 308.207 724.696 307.935 724.987 307.838L726.705 307.265C729.168 306.444 731.832 306.444 734.295 307.265L736.013 307.838C736.304 307.935 736.5 308.207 736.5 308.513V308.513Z"
       fill="#E0DCDC"
       id="path303" />
    <path
       d="M623.5 455C624.052 455 624.5 455.448 624.5 456L624.5 466C624.5 466.552 624.052 467 623.5 467L613.221 467C612.79 467 612.408 466.725 612.272 466.316L611.765 464.795C610.944 462.332 610.944 459.668 611.765 457.205L612.272 455.684C612.408 455.275 612.79 455 613.221 455L623.5 455Z"
       fill="#E0DCDC"
       id="path305" />
    <path
       d="M611.013 455C611.498 455 611.841 455.476 611.688 455.937L611.265 457.205C610.444 459.668 610.444 462.332 611.265 464.795L611.688 466.063C611.841 466.524 611.498 467 611.013 467V467C610.707 467 610.435 466.804 610.338 466.513L609.765 464.795C608.944 462.332 608.944 459.668 609.765 457.205L610.338 455.487C610.435 455.196 610.707 455 611.013 455V455Z"
       fill="#E0DCDC"
       id="path307" />
    <path
       d="M751.5 455C752.052 455 752.5 455.448 752.5 456L752.5 466C752.5 466.552 752.052 467 751.5 467L741.221 467C740.79 467 740.408 466.725 740.272 466.316L739.765 464.795C738.944 462.332 738.944 459.668 739.765 457.205L740.272 455.684C740.408 455.275 740.79 455 741.221 455L751.5 455Z"
       fill="#E0DCDC"
       id="path309" />
    <path
       d="M739.013 455C739.498 455 739.841 455.476 739.688 455.937L739.265 457.205C738.444 459.668 738.444 462.332 739.265 464.795L739.688 466.063C739.841 466.524 739.498 467 739.013 467V467C738.707 467 738.435 466.804 738.338 466.513L737.765 464.795C736.944 462.332 736.944 459.668 737.765 457.205L738.338 455.487C738.435 455.196 738.707 455 739.013 455V455Z"
       fill="#E0DCDC"
       id="path311" />
    <path
       d="M623.5 594C624.052 594 624.5 594.448 624.5 595L624.5 605C624.5 605.552 624.052 606 623.5 606L613.221 606C612.79 606 612.408 605.725 612.272 605.316L611.765 603.795C610.944 601.332 610.944 598.668 611.765 596.205L612.272 594.684C612.408 594.275 612.79 594 613.221 594L623.5 594Z"
       fill="#E0DCDC"
       id="path313" />
    <path
       d="M611.013 594C611.498 594 611.841 594.476 611.688 594.937L611.265 596.205C610.444 598.668 610.444 601.332 611.265 603.795L611.688 605.063C611.841 605.524 611.498 606 611.013 606V606C610.707 606 610.435 605.804 610.338 605.513L609.765 603.795C608.944 601.332 608.944 598.668 609.765 596.205L610.338 594.487C610.435 594.196 610.707 594 611.013 594V594Z"
       fill="#E0DCDC"
       id="path315" />
    <path
       d="M750.5 594C751.052 594 751.5 594.448 751.5 595L751.5 605C751.5 605.552 751.052 606 750.5 606L740.221 606C739.79 606 739.408 605.725 739.272 605.316L738.765 603.795C737.944 601.332 737.944 598.668 738.765 596.205L739.272 594.684C739.408 594.275 739.79 594 740.221 594L750.5 594Z"
       fill="#E0DCDC"
       id="path317" />
    <path
       d="M738.013 594C738.498 594 738.841 594.476 738.688 594.937L738.265 596.205C737.444 598.668 737.444 601.332 738.265 603.795L738.688 605.063C738.841 605.524 738.498 606 738.013 606V606C737.707 606 737.435 605.804 737.338 605.513L736.765 603.795C735.944 601.332 735.944 598.668 736.765 596.205L737.338 594.487C737.435 594.196 737.707 594 738.013 594V594Z"
       fill="#E0DCDC"
       id="path319" />
    <path
       d="M694.5 321C694.5 321.552 694.052 322 693.5 322L683.5 322C682.948 322 682.5 321.552 682.5 321L682.5 310.721C682.5 310.29 682.775 309.908 683.184 309.772L684.705 309.265C687.168 308.444 689.832 308.444 692.295 309.265L693.816 309.772C694.225 309.908 694.5 310.29 694.5 310.721L694.5 321Z"
       fill="#E0DCDC"
       id="path321" />
    <path
       d="M694.5 308.513C694.5 308.998 694.024 309.341 693.563 309.188L692.295 308.765C689.832 307.944 687.168 307.944 684.705 308.765L683.437 309.188C682.976 309.341 682.5 308.998 682.5 308.513V308.513C682.5 308.207 682.696 307.935 682.987 307.838L684.705 307.265C687.168 306.444 689.832 306.444 692.295 307.265L694.013 307.838C694.304 307.935 694.5 308.207 694.5 308.513V308.513Z"
       fill="#E0DCDC"
       id="path323" />
    <path
       d="M187.5 563C186.948 563 186.5 562.552 186.5 562L186.5 552C186.5 551.448 186.948 551 187.5 551L197.779 551C198.21 551 198.592 551.275 198.728 551.684L199.235 553.205C200.056 555.668 200.056 558.332 199.235 560.795L198.728 562.316C198.592 562.725 198.21 563 197.779 563L187.5 563Z"
       fill="#E0DCDC"
       id="path325" />
    <path
       d="M199.987 563C199.502 563 199.159 562.524 199.312 562.063L199.735 560.795C200.556 558.332 200.556 555.668 199.735 553.205L199.312 551.937C199.159 551.476 199.502 551 199.987 551V551C200.293 551 200.565 551.196 200.662 551.487L201.235 553.205C202.056 555.668 202.056 558.332 201.235 560.795L200.662 562.513C200.565 562.804 200.293 563 199.987 563V563Z"
       fill="#E0DCDC"
       id="path327" />
    <path
       d="M623.5 497C624.052 497 624.5 497.448 624.5 498L624.5 508C624.5 508.552 624.052 509 623.5 509L613.221 509C612.79 509 612.408 508.725 612.272 508.316L611.765 506.795C610.944 504.332 610.944 501.668 611.765 499.205L612.272 497.684C612.408 497.275 612.79 497 613.221 497L623.5 497Z"
       fill="#E0DCDC"
       id="path329" />
    <path
       d="M611.013 497C611.498 497 611.841 497.476 611.688 497.937L611.265 499.205C610.444 501.668 610.444 504.332 611.265 506.795L611.688 508.063C611.841 508.524 611.498 509 611.013 509V509C610.707 509 610.435 508.804 610.338 508.513L609.765 506.795C608.944 504.332 608.944 501.668 609.765 499.205L610.338 497.487C610.435 497.196 610.707 497 611.013 497V497Z"
       fill="#E0DCDC"
       id="path331" />
    <path
       d="M751.5 497C752.052 497 752.5 497.448 752.5 498L752.5 508C752.5 508.552 752.052 509 751.5 509L741.221 509C740.79 509 740.408 508.725 740.272 508.316L739.765 506.795C738.944 504.332 738.944 501.668 739.765 499.205L740.272 497.684C740.408 497.275 740.79 497 741.221 497L751.5 497Z"
       fill="#E0DCDC"
       id="path333" />
    <path
       d="M739.013 497C739.498 497 739.841 497.476 739.688 497.937L739.265 499.205C738.444 501.668 738.444 504.332 739.265 506.795L739.688 508.063C739.841 508.524 739.498 509 739.013 509V509C738.707 509 738.435 508.804 738.338 508.513L737.765 506.795C736.944 504.332 736.944 501.668 737.765 499.205L738.338 497.487C738.435 497.196 738.707 497 739.013 497V497Z"
       fill="#E0DCDC"
       id="path335" />
    <path
       d="M623.5 636C624.052 636 624.5 636.448 624.5 637L624.5 647C624.5 647.552 624.052 648 623.5 648L613.221 648C612.79 648 612.408 647.725 612.272 647.316L611.765 645.795C610.944 643.332 610.944 640.668 611.765 638.205L612.272 636.684C612.408 636.275 612.79 636 613.221 636L623.5 636Z"
       fill="#E0DCDC"
       id="path337" />
    <path
       d="M611.013 636C611.498 636 611.841 636.476 611.688 636.937L611.265 638.205C610.444 640.668 610.444 643.332 611.265 645.795L611.688 647.063C611.841 647.524 611.498 648 611.013 648V648C610.707 648 610.435 647.804 610.338 647.513L609.765 645.795C608.944 643.332 608.944 640.668 609.765 638.205L610.338 636.487C610.435 636.196 610.707 636 611.013 636V636Z"
       fill="#E0DCDC"
       id="path339" />
    <path
       d="M750.5 636C751.052 636 751.5 636.448 751.5 637L751.5 647C751.5 647.552 751.052 648 750.5 648L740.221 648C739.79 648 739.408 647.725 739.272 647.316L738.765 645.795C737.944 643.332 737.944 640.668 738.765 638.205L739.272 636.684C739.408 636.275 739.79 636 740.221 636L750.5 636Z"
       fill="#E0DCDC"
       id="path341" />
    <path
       d="M738.013 636C738.498 636 738.841 636.476 738.688 636.937L738.265 638.205C737.444 640.668 737.444 643.332 738.265 645.795L738.688 647.063C738.841 647.524 738.498 648 738.013 648V648C737.707 648 737.435 647.804 737.338 647.513L736.765 645.795C735.944 643.332 735.944 640.668 736.765 638.205L737.338 636.487C737.435 636.196 737.707 636 738.013 636V636Z"
       fill="#E0DCDC"
       id="path343" />
    <path
       d="M869.5 636C870.052 636 870.5 636.448 870.5 637L870.5 647C870.5 647.552 870.052 648 869.5 648L859.221 648C858.79 648 858.408 647.725 858.272 647.316L857.765 645.795C856.944 643.332 856.944 640.668 857.765 638.205L858.272 636.684C858.408 636.275 858.79 636 859.221 636L869.5 636Z"
       fill="#E0DCDC"
       id="path345" />
    <path
       d="M857.013 636C857.498 636 857.841 636.476 857.688 636.937L857.265 638.205C856.444 640.668 856.444 643.332 857.265 645.795L857.688 647.063C857.841 647.524 857.498 648 857.013 648V648C856.707 648 856.435 647.804 856.338 647.513L855.765 645.795C854.944 643.332 854.944 640.668 855.765 638.205L856.338 636.487C856.435 636.196 856.707 636 857.013 636V636Z"
       fill="#E0DCDC"
       id="path347" />
    <rect
       x="112.5"
       y="397"
       width="12"
       height="24"
       rx="4"
       fill="#E0DCDC"
       id="rect349" />
    <rect
       x="200.5"
       y="372"
       width="12"
       height="24"
       rx="4"
       transform="rotate(90 200.5 372)"
       fill="#E0DCDC"
       id="rect351" />
    <rect
       x="334.5"
       y="294"
       width="12"
       height="24"
       rx="4"
       transform="rotate(90 334.5 294)"
       fill="#E0DCDC"
       id="rect353" />
    <rect
       x="359.5"
       y="383"
       width="12"
       height="24"
       rx="4"
       transform="rotate(-180 359.5 383)"
       fill="#E0DCDC"
       id="rect355" />
    <rect
       x="285.5"
       y="408"
       width="12"
       height="24"
       rx="4"
       transform="rotate(-90 285.5 408)"
       fill="#E0DCDC"
       id="rect357" />
    <rect
       x="291.5"
       y="524"
       width="12"
       height="24"
       rx="4"
       transform="rotate(-90 291.5 524)"
       fill="#E0DCDC"
       id="rect359" />
    <rect
       x="266.5"
       y="553"
       width="12"
       height="24"
       rx="4"
       fill="#E0DCDC"
       id="rect361" />
    <rect
       x="345.5"
       y="551"
       width="12"
       height="24"
       rx="4"
       fill="#E0DCDC"
       id="rect363" />
    <rect
       x="292.5"
       y="669"
       width="12"
       height="24"
       rx="4"
       transform="rotate(-90 292.5 669)"
       fill="#E0DCDC"
       id="rect365" />
    <rect
       x="317.5"
       y="669"
       width="12"
       height="24"
       rx="4"
       transform="rotate(-90 317.5 669)"
       fill="#E0DCDC"
       id="rect367" />
    <rect
       x="391.5"
       y="644"
       width="12"
       height="24"
       rx="4"
       transform="rotate(-180 391.5 644)"
       fill="#E0DCDC"
       id="rect369" />
    <rect
       x="445.5"
       y="644"
       width="12"
       height="24"
       rx="4"
       transform="rotate(-180 445.5 644)"
       fill="#E0DCDC"
       id="rect371" />
    <rect
       x="420.5"
       y="526"
       width="12"
       height="24"
       rx="4"
       transform="rotate(90 420.5 526)"
       fill="#E0DCDC"
       id="rect373" />
    <rect
       x="197.5"
       y="319"
       width="12"
       height="24"
       rx="4"
       fill="#E0DCDC"
       id="rect375" />
    <rect
       x="225.5"
       y="467"
       width="12"
       height="24"
       rx="4"
       transform="rotate(-180 225.5 467)"
       fill="#E0DCDC"
       id="rect377" />
    <rect
       x="161.5"
       y="372"
       width="12"
       height="24"
       rx="4"
       transform="rotate(90 161.5 372)"
       fill="#E0DCDC"
       id="rect379" />
    <rect
       x="225.5"
       y="421"
       width="12"
       height="24"
       rx="4"
       transform="rotate(-180 225.5 421)"
       fill="#E0DCDC"
       id="rect381" />
    <rect
       x="359.5"
       y="343"
       width="12"
       height="24"
       rx="4"
       transform="rotate(-180 359.5 343)"
       fill="#E0DCDC"
       id="rect383" />
    <rect
       x="445.5"
       y="323"
       width="12"
       height="24"
       rx="4"
       transform="rotate(-180 445.5 323)"
       fill="#E0DCDC"
       id="rect385" />
    <rect
       x="542.5"
       y="323"
       width="12"
       height="24"
       rx="4"
       transform="rotate(-180 542.5 323)"
       fill="#E0DCDC"
       id="rect387" />
    <rect
       x="784.5"
       y="338"
       width="12"
       height="28"
       rx="4"
       transform="rotate(-180 784.5 338)"
       fill="#E0DCDC"
       id="rect389" />
    <rect
       x="832.5"
       y="642"
       width="12"
       height="28"
       rx="4"
       fill="#E0DCDC"
       id="rect391" />
    <rect
       x="943.5"
       y="338"
       width="12"
       height="28"
       rx="4"
       transform="rotate(-180 943.5 338)"
       fill="#E0DCDC"
       id="rect393" />
    <rect
       x="1039.5"
       y="438"
       width="12"
       height="28"
       rx="4"
       transform="rotate(-180 1039.5 438)"
       fill="#E0DCDC"
       id="rect395" />
    <rect
       x="445.5"
       y="348"
       width="48"
       height="24"
       rx="4"
       transform="rotate(-180 445.5 348)"
       fill="#E0DCDC"
       id="rect397" />
    <rect
       x="578.5"
       y="348"
       width="48"
       height="24"
       rx="4"
       transform="rotate(-180 578.5 348)"
       fill="#E0DCDC"
       id="rect399" />
    <rect
       x="625.5"
       y="303"
       width="48"
       height="12"
       rx="4"
       transform="rotate(90 625.5 303)"
       fill="#E0DCDC"
       id="rect401" />
    <rect
       x="739.5"
       y="356"
       width="80"
       height="32"
       rx="4"
       transform="rotate(-180 739.5 356)"
       fill="#E0DCDC"
       id="rect403" />
    <rect
       x="152.5"
       y="586"
       width="58"
       height="32"
       rx="4"
       transform="rotate(-90 152.5 586)"
       fill="#E0DCDC"
       id="rect405" />
    <rect
       x="754.5"
       y="531"
       width="80"
       height="32"
       rx="4"
       transform="rotate(-90 754.5 531)"
       fill="#E0DCDC"
       id="rect407" />
    <rect
       x="754.5"
       y="669"
       width="80"
       height="32"
       rx="4"
       transform="rotate(-90 754.5 669)"
       fill="#E0DCDC"
       id="rect409" />
    <rect
       x="626.5"
       y="531"
       width="80"
       height="32"
       rx="4"
       transform="rotate(-90 626.5 531)"
       fill="#E0DCDC"
       id="rect411" />
    <rect
       x="626.5"
       y="669"
       width="80"
       height="32"
       rx="4"
       transform="rotate(-90 626.5 669)"
       fill="#E0DCDC"
       id="rect413" />
    <rect
       x="820.5"
       y="363"
       width="48"
       height="24"
       rx="4"
       transform="rotate(-180 820.5 363)"
       fill="#E0DCDC"
       id="rect415" />
    <rect
       x="903.5"
       y="621"
       width="48"
       height="24"
       rx="4"
       transform="rotate(90 903.5 621)"
       fill="#E0DCDC"
       id="rect417" />
    <rect
       x="943.5"
       y="363"
       width="48"
       height="24"
       rx="4"
       transform="rotate(-180 943.5 363)"
       fill="#E0DCDC"
       id="rect419" />
    <rect
       x="1039.5"
       y="409"
       width="48"
       height="24"
       rx="4"
       transform="rotate(-180 1039.5 409)"
       fill="#E0DCDC"
       id="rect421" />
    <rect
       x="820.5"
       y="309"
       width="48"
       height="16"
       rx="4"
       transform="rotate(-180 820.5 309)"
       fill="#E0DCDC"
       id="rect423" />
    <rect
       x="903.5"
       y="622"
       width="48"
       height="16"
       rx="4"
       transform="rotate(-180 903.5 622)"
       fill="#E0DCDC"
       id="rect425" />
    <rect
       x="943.5"
       y="309"
       width="48"
       height="16"
       rx="4"
       transform="rotate(-180 943.5 309)"
       fill="#E0DCDC"
       id="rect427" />
    <rect
       x="1039.5"
       y="455"
       width="48"
       height="16"
       rx="4"
       transform="rotate(-180 1039.5 455)"
       fill="#E0DCDC"
       id="rect429" />
    <rect
       x="310.5"
       y="408"
       width="12"
       height="24"
       rx="4"
       transform="rotate(-90 310.5 408)"
       fill="#E0DCDC"
       id="rect431" />
    <rect
       x="260.5"
       y="359"
       width="12"
       height="24"
       rx="4"
       fill="#E0DCDC"
       id="rect433" />
    <rect
       x="266.5"
       y="475"
       width="12"
       height="24"
       rx="4"
       fill="#E0DCDC"
       id="rect435" />
    <rect
       x="315.5"
       y="528"
       width="12"
       height="24"
       rx="4"
       transform="rotate(90 315.5 528)"
       fill="#E0DCDC"
       id="rect437" />
    <rect
       x="394.5"
       y="526"
       width="12"
       height="24"
       rx="4"
       transform="rotate(90 394.5 526)"
       fill="#E0DCDC"
       id="rect439" />
    <rect
       x="267.5"
       y="620"
       width="12"
       height="24"
       rx="4"
       fill="#E0DCDC"
       id="rect441" />
    <rect
       x="342.5"
       y="669"
       width="12"
       height="24"
       rx="4"
       transform="rotate(-90 342.5 669)"
       fill="#E0DCDC"
       id="rect443" />
    <rect
       x="396.5"
       y="669"
       width="12"
       height="24"
       rx="4"
       transform="rotate(-90 396.5 669)"
       fill="#E0DCDC"
       id="rect445" />
    <rect
       x="445.5"
       y="575"
       width="12"
       height="24"
       rx="4"
       transform="rotate(-180 445.5 575)"
       fill="#E0DCDC"
       id="rect447" />
    <rect
       x="246.5"
       y="294"
       width="12"
       height="24"
       rx="4"
       transform="rotate(90 246.5 294)"
       fill="#E0DCDC"
       id="rect449" />
    <rect
       x="271.5"
       y="294"
       width="12"
       height="24"
       rx="4"
       transform="rotate(90 271.5 294)"
       fill="#E0DCDC"
       id="rect451" />
    <rect
       x="296.5"
       y="294"
       width="12"
       height="24"
       rx="4"
       transform="rotate(90 296.5 294)"
       fill="#E0DCDC"
       id="rect453" />
    <rect
       x="176.5"
       y="492"
       width="12"
       height="24"
       rx="4"
       transform="rotate(-90 176.5 492)"
       fill="#E0DCDC"
       id="rect455" />
    <rect
       x="151.5"
       y="492"
       width="12"
       height="24"
       rx="4"
       transform="rotate(-90 151.5 492)"
       fill="#E0DCDC"
       id="rect457" />
    <rect
       x="186.5"
       y="372"
       width="12"
       height="24"
       rx="4"
       transform="rotate(90 186.5 372)"
       fill="#E0DCDC"
       id="rect459" />
    <path
       d="M112.5 376C112.5 373.791 114.291 372 116.5 372H132.5C134.709 372 136.5 373.791 136.5 376V380C136.5 382.209 134.709 384 132.5 384H128.5C126.291 384 124.5 385.791 124.5 388V392C124.5 394.209 122.709 396 120.5 396H116.5C114.291 396 112.5 394.209 112.5 392L112.5 376Z"
       fill="#E0DCDC"
       id="path461" />
    <path
       d="M221.5 372C223.709 372 225.5 373.791 225.5 376L225.5 392C225.5 394.209 223.709 396 221.5 396L217.5 396C215.291 396 213.5 394.209 213.5 392L213.5 388C213.5 385.791 211.709 384 209.5 384L205.5 384C203.291 384 201.5 382.209 201.5 380L201.5 376C201.5 373.791 203.291 372 205.5 372L221.5 372Z"
       fill="#E0DCDC"
       id="path463" />
    <path
       d="M355.5 294C357.709 294 359.5 295.791 359.5 298L359.5 314C359.5 316.209 357.709 318 355.5 318L351.5 318C349.291 318 347.5 316.209 347.5 314L347.5 310C347.5 307.791 345.709 306 343.5 306L339.5 306C337.291 306 335.5 304.209 335.5 302L335.5 298C335.5 295.791 337.291 294 339.5 294L355.5 294Z"
       fill="#E0DCDC"
       id="path465" />
    <path
       d="M359.5 404C359.5 406.209 357.709 408 355.5 408L339.5 408C337.291 408 335.5 406.209 335.5 404L335.5 400C335.5 397.791 337.291 396 339.5 396L343.5 396C345.709 396 347.5 394.209 347.5 392L347.5 388C347.5 385.791 349.291 384 351.5 384L355.5 384C357.709 384 359.5 385.791 359.5 388L359.5 404Z"
       fill="#E0DCDC"
       id="path467" />
    <path
       d="M264.5 408C262.291 408 260.5 406.209 260.5 404L260.5 388C260.5 385.791 262.291 384 264.5 384L268.5 384C270.709 384 272.5 385.791 272.5 388L272.5 392C272.5 394.209 274.291 396 276.5 396L280.5 396C282.709 396 284.5 397.791 284.5 400L284.5 404C284.5 406.209 282.709 408 280.5 408L264.5 408Z"
       fill="#E0DCDC"
       id="path469" />
    <path
       d="M270.5 524C268.291 524 266.5 522.209 266.5 520L266.5 504C266.5 501.791 268.291 500 270.5 500L274.5 500C276.709 500 278.5 501.791 278.5 504L278.5 508C278.5 510.209 280.291 512 282.5 512L286.5 512C288.709 512 290.5 513.791 290.5 516L290.5 520C290.5 522.209 288.709 524 286.5 524L270.5 524Z"
       fill="#E0DCDC"
       id="path471" />
    <path
       d="M266.5 532C266.5 529.791 268.291 528 270.5 528L286.5 528C288.709 528 290.5 529.791 290.5 532L290.5 536C290.5 538.209 288.709 540 286.5 540L282.5 540C280.291 540 278.5 541.791 278.5 544L278.5 548C278.5 550.209 276.709 552 274.5 552L270.5 552C268.291 552 266.5 550.209 266.5 548L266.5 532Z"
       fill="#E0DCDC"
       id="path473" />
    <path
       d="M345.5 530C345.5 527.791 347.291 526 349.5 526L365.5 526C367.709 526 369.5 527.791 369.5 530L369.5 534C369.5 536.209 367.709 538 365.5 538L361.5 538C359.291 538 357.5 539.791 357.5 542L357.5 546C357.5 548.209 355.709 550 353.5 550L349.5 550C347.291 550 345.5 548.209 345.5 546L345.5 530Z"
       fill="#E0DCDC"
       id="path475" />
    <path
       d="M271.5 669C269.291 669 267.5 667.209 267.5 665L267.5 649C267.5 646.791 269.291 645 271.5 645L275.5 645C277.709 645 279.5 646.791 279.5 649L279.5 653C279.5 655.209 281.291 657 283.5 657L287.5 657C289.709 657 291.5 658.791 291.5 661L291.5 665C291.5 667.209 289.709 669 287.5 669L271.5 669Z"
       fill="#E0DCDC"
       id="path477" />
    <path
       d="M391.5 665C391.5 667.209 389.709 669 387.5 669L371.5 669C369.291 669 367.5 667.209 367.5 665L367.5 661C367.5 658.791 369.291 657 371.5 657L375.5 657C377.709 657 379.5 655.209 379.5 653L379.5 649C379.5 646.791 381.291 645 383.5 645L387.5 645C389.709 645 391.5 646.791 391.5 649L391.5 665Z"
       fill="#E0DCDC"
       id="path479" />
    <path
       d="M445.5 665C445.5 667.209 443.709 669 441.5 669L425.5 669C423.291 669 421.5 667.209 421.5 665L421.5 661C421.5 658.791 423.291 657 425.5 657L429.5 657C431.709 657 433.5 655.209 433.5 653L433.5 649C433.5 646.791 435.291 645 437.5 645L441.5 645C443.709 645 445.5 646.791 445.5 649L445.5 665Z"
       fill="#E0DCDC"
       id="path481" />
    <path
       d="M441.5 526C443.709 526 445.5 527.791 445.5 530L445.5 546C445.5 548.209 443.709 550 441.5 550L437.5 550C435.291 550 433.5 548.209 433.5 546L433.5 542C433.5 539.791 431.709 538 429.5 538L425.5 538C423.291 538 421.5 536.209 421.5 534L421.5 530C421.5 527.791 423.291 526 425.5 526L441.5 526Z"
       fill="#E0DCDC"
       id="path483" />
    <path
       d="M197.5 298C197.5 295.791 199.291 294 201.5 294L217.5 294C219.709 294 221.5 295.791 221.5 298V302C221.5 304.209 219.709 306 217.5 306L213.5 306C211.291 306 209.5 307.791 209.5 310V314C209.5 316.209 207.709 318 205.5 318H201.5C199.291 318 197.5 316.209 197.5 314L197.5 298Z"
       fill="#E0DCDC"
       id="path485" />
    <path
       d="M225.5 488C225.5 490.209 223.709 492 221.5 492L205.5 492C203.291 492 201.5 490.209 201.5 488L201.5 484C201.5 481.791 203.291 480 205.5 480L212.5 480C213.052 480 213.5 479.552 213.5 479L213.5 472C213.5 469.791 215.291 468 217.5 468L221.5 468C223.709 468 225.5 469.791 225.5 472L225.5 488Z"
       fill="#E0DCDC"
       id="path487" />
    <circle
       cx="394.5"
       cy="486"
       r="16"
       fill="#E0DCDC"
       id="circle489" />
    <g
       filter="url(#filter5_dd)"
       id="g577" />
    <mask
       id="mask1"
       mask-type="alpha"
       maskUnits="userSpaceOnUse"
       x="507"
       y="367"
       width="17"
       height="18">
      <rect
         x="507.357"
         y="367.857"
         width="16.2857"
         height="16.2857"
         rx="2"
         fill="#C4C4C4"
         id="rect601" />
    </mask>
    <mask
       id="mask2"
       mask-type="alpha"
       maskUnits="userSpaceOnUse"
       x="952"
       y="572"
       width="17"
       height="18">
      <rect
         x="952.357"
         y="572.857"
         width="16.2857"
         height="16.2857"
         rx="2"
         fill="#C4C4C4"
         id="rect622" />
    </mask>
  </g>
  <defs
     id="defs1276">
    <filter
       id="filter0_di"
       x="0"
       y="0"
       width="1314"
       height="1014"
       filterUnits="userSpaceOnUse"
       color-interpolation-filters="sRGB">
      <feFlood
         flood-opacity="0"
         result="BackgroundImageFix"
         id="feFlood1006" />
      <feColorMatrix
         in="SourceAlpha"
         type="matrix"
         values="0 0 0 0 0 0 0 0 0 0 0 0 0 0 0 0 0 0 127 0"
         id="feColorMatrix1008" />
      <feOffset
         dy="30"
         id="feOffset1010" />
      <feGaussianBlur
         stdDeviation="22.5"
         id="feGaussianBlur1012" />
      <feColorMatrix
         type="matrix"
         values="0 0 0 0 0 0 0 0 0 0 0 0 0 0 0 0 0 0 0.08 0"
         id="feColorMatrix1014" />
      <feBlend
         mode="normal"
         in2="BackgroundImageFix"
         result="effect1_dropShadow"
         id="feBlend1016" />
      <feBlend
         mode="normal"
         in="SourceGraphic"
         in2="effect1_dropShadow"
         result="shape"
         id="feBlend1018" />
      <feColorMatrix
         in="SourceAlpha"
         type="matrix"
         values="0 0 0 0 0 0 0 0 0 0 0 0 0 0 0 0 0 0 127 0"
         result="hardAlpha"
         id="feColorMatrix1020" />
      <feOffset
         id="feOffset1022" />
      <feGaussianBlur
         stdDeviation="5"
         id="feGaussianBlur1024" />
      <feComposite
         in2="hardAlpha"
         operator="arithmetic"
         k2="-1"
         k3="1"
         id="feComposite1026" />
      <feColorMatrix
         type="matrix"
         values="0 0 0 0 0.920833 0 0 0 0 0.874792 0 0 0 0 0.84026 0 0 0 1 0"
         id="feColorMatrix1028" />
      <feBlend
         mode="normal"
         in2="shape"
         result="effect2_innerShadow"
         id="feBlend1030" />
    </filter>
    <filter
       id="filter1_dd"
       x="308.182"
       y="446.939"
       width="24.6364"
       height="22.4545"
       filterUnits="userSpaceOnUse"
       color-interpolation-filters="sRGB">
      <feFlood
         flood-opacity="0"
         result="BackgroundImageFix"
         id="feFlood1033" />
      <feColorMatrix
         in="SourceAlpha"
         type="matrix"
         values="0 0 0 0 0 0 0 0 0 0 0 0 0 0 0 0 0 0 127 0"
         id="feColorMatrix1035" />
      <feOffset
         dy="1"
         id="feOffset1037" />
      <feGaussianBlur
         stdDeviation="1"
         id="feGaussianBlur1039" />
      <feColorMatrix
         type="matrix"
         values="0 0 0 0 0 0 0 0 0 0 0 0 0 0 0 0 0 0 0.16 0"
         id="feColorMatrix1041" />
      <feBlend
         mode="normal"
         in2="BackgroundImageFix"
         result="effect1_dropShadow"
         id="feBlend1043" />
      <feColorMatrix
         in="SourceAlpha"
         type="matrix"
         values="0 0 0 0 0 0 0 0 0 0 0 0 0 0 0 0 0 0 127 0"
         id="feColorMatrix1045" />
      <feOffset
         id="feOffset1047" />
      <feGaussianBlur
         stdDeviation="0.5"
         id="feGaussianBlur1049" />
      <feColorMatrix
         type="matrix"
         values="0 0 0 0 0 0 0 0 0 0 0 0 0 0 0 0 0 0 0.16 0"
         id="feColorMatrix1051" />
      <feBlend
         mode="normal"
         in2="effect1_dropShadow"
         result="effect2_dropShadow"
         id="feBlend1053" />
      <feBlend
         mode="normal"
         in="SourceGraphic"
         in2="effect2_dropShadow"
         result="shape"
         id="feBlend1055" />
    </filter>
    <filter
       id="filter2_dd"
       x="271.182"
       y="446.939"
       width="24.6364"
       height="22.4545"
       filterUnits="userSpaceOnUse"
       color-interpolation-filters="sRGB">
      <feFlood
         flood-opacity="0"
         result="BackgroundImageFix"
         id="feFlood1058" />
      <feColorMatrix
         in="SourceAlpha"
         type="matrix"
         values="0 0 0 0 0 0 0 0 0 0 0 0 0 0 0 0 0 0 127 0"
         id="feColorMatrix1060" />
      <feOffset
         dy="1"
         id="feOffset1062" />
      <feGaussianBlur
         stdDeviation="1"
         id="feGaussianBlur1064" />
      <feColorMatrix
         type="matrix"
         values="0 0 0 0 0 0 0 0 0 0 0 0 0 0 0 0 0 0 0.16 0"
         id="feColorMatrix1066" />
      <feBlend
         mode="normal"
         in2="BackgroundImageFix"
         result="effect1_dropShadow"
         id="feBlend1068" />
      <feColorMatrix
         in="SourceAlpha"
         type="matrix"
         values="0 0 0 0 0 0 0 0 0 0 0 0 0 0 0 0 0 0 127 0"
         id="feColorMatrix1070" />
      <feOffset
         id="feOffset1072" />
      <feGaussianBlur
         stdDeviation="0.5"
         id="feGaussianBlur1074" />
      <feColorMatrix
         type="matrix"
         values="0 0 0 0 0 0 0 0 0 0 0 0 0 0 0 0 0 0 0.16 0"
         id="feColorMatrix1076" />
      <feBlend
         mode="normal"
         in2="effect1_dropShadow"
         result="effect2_dropShadow"
         id="feBlend1078" />
      <feBlend
         mode="normal"
         in="SourceGraphic"
         in2="effect2_dropShadow"
         result="shape"
         id="feBlend1080" />
    </filter>
    <filter
       id="filter3_dd"
       x="549.182"
       y="574.682"
       width="24.6364"
       height="22.6225"
       filterUnits="userSpaceOnUse"
       color-interpolation-filters="sRGB">
      <feFlood
         flood-opacity="0"
         result="BackgroundImageFix"
         id="feFlood1083" />
      <feColorMatrix
         in="SourceAlpha"
         type="matrix"
         values="0 0 0 0 0 0 0 0 0 0 0 0 0 0 0 0 0 0 127 0"
         id="feColorMatrix1085" />
      <feOffset
         dy="1"
         id="feOffset1087" />
      <feGaussianBlur
         stdDeviation="1"
         id="feGaussianBlur1089" />
      <feColorMatrix
         type="matrix"
         values="0 0 0 0 0 0 0 0 0 0 0 0 0 0 0 0 0 0 0.16 0"
         id="feColorMatrix1091" />
      <feBlend
         mode="normal"
         in2="BackgroundImageFix"
         result="effect1_dropShadow"
         id="feBlend1093" />
      <feColorMatrix
         in="SourceAlpha"
         type="matrix"
         values="0 0 0 0 0 0 0 0 0 0 0 0 0 0 0 0 0 0 127 0"
         id="feColorMatrix1095" />
      <feOffset
         id="feOffset1097" />
      <feGaussianBlur
         stdDeviation="0.5"
         id="feGaussianBlur1099" />
      <feColorMatrix
         type="matrix"
         values="0 0 0 0 0 0 0 0 0 0 0 0 0 0 0 0 0 0 0.16 0"
         id="feColorMatrix1101" />
      <feBlend
         mode="normal"
         in2="effect1_dropShadow"
         result="effect2_dropShadow"
         id="feBlend1103" />
      <feBlend
         mode="normal"
         in="SourceGraphic"
         in2="effect2_dropShadow"
         result="shape"
         id="feBlend1105" />
    </filter>
    <filter
       id="filter4_dd"
       x="190.182"
       y="347.682"
       width="24.6364"
       height="22.6225"
       filterUnits="userSpaceOnUse"
       color-interpolation-filters="sRGB">
      <feFlood
         flood-opacity="0"
         result="BackgroundImageFix"
         id="feFlood1108" />
      <feColorMatrix
         in="SourceAlpha"
         type="matrix"
         values="0 0 0 0 0 0 0 0 0 0 0 0 0 0 0 0 0 0 127 0"
         id="feColorMatrix1110" />
      <feOffset
         dy="1"
         id="feOffset1112" />
      <feGaussianBlur
         stdDeviation="1"
         id="feGaussianBlur1114" />
      <feColorMatrix
         type="matrix"
         values="0 0 0 0 0 0 0 0 0 0 0 0 0 0 0 0 0 0 0.16 0"
         id="feColorMatrix1116" />
      <feBlend
         mode="normal"
         in2="BackgroundImageFix"
         result="effect1_dropShadow"
         id="feBlend1118" />
      <feColorMatrix
         in="SourceAlpha"
         type="matrix"
         values="0 0 0 0 0 0 0 0 0 0 0 0 0 0 0 0 0 0 127 0"
         id="feColorMatrix1120" />
      <feOffset
         id="feOffset1122" />
      <feGaussianBlur
         stdDeviation="0.5"
         id="feGaussianBlur1124" />
      <feColorMatrix
         type="matrix"
         values="0 0 0 0 0 0 0 0 0 0 0 0 0 0 0 0 0 0 0.16 0"
         id="feColorMatrix1126" />
      <feBlend
         mode="normal"
         in2="effect1_dropShadow"
         result="effect2_dropShadow"
         id="feBlend1128" />
      <feBlend
         mode="normal"
         in="SourceGraphic"
         in2="effect2_dropShadow"
         result="shape"
         id="feBlend1130" />
    </filter>
    <filter
       id="filter5_dd"
       x="523.687"
       y="470.59"
       width="20.05"
       height="25.7273"
       filterUnits="userSpaceOnUse"
       color-interpolation-filters="sRGB">
      <feFlood
         flood-opacity="0"
         result="BackgroundImageFix"
         id="feFlood1133" />
      <feColorMatrix
         in="SourceAlpha"
         type="matrix"
         values="0 0 0 0 0 0 0 0 0 0 0 0 0 0 0 0 0 0 127 0"
         id="feColorMatrix1135" />
      <feOffset
         dy="1"
         id="feOffset1137" />
      <feGaussianBlur
         stdDeviation="1"
         id="feGaussianBlur1139" />
      <feColorMatrix
         type="matrix"
         values="0 0 0 0 0 0 0 0 0 0 0 0 0 0 0 0 0 0 0.16 0"
         id="feColorMatrix1141" />
      <feBlend
         mode="normal"
         in2="BackgroundImageFix"
         result="effect1_dropShadow"
         id="feBlend1143" />
      <feColorMatrix
         in="SourceAlpha"
         type="matrix"
         values="0 0 0 0 0 0 0 0 0 0 0 0 0 0 0 0 0 0 127 0"
         id="feColorMatrix1145" />
      <feOffset
         id="feOffset1147" />
      <feGaussianBlur
         stdDeviation="0.5"
         id="feGaussianBlur1149" />
      <feColorMatrix
         type="matrix"
         values="0 0 0 0 0 0 0 0 0 0 0 0 0 0 0 0 0 0 0.16 0"
         id="feColorMatrix1151" />
      <feBlend
         mode="normal"
         in2="effect1_dropShadow"
         result="effect2_dropShadow"
         id="feBlend1153" />
      <feBlend
         mode="normal"
         in="SourceGraphic"
         in2="effect2_dropShadow"
         result="shape"
         id="feBlend1155" />
    </filter>
    <filter
       id="filter6_dd"
       x="231.687"
       y="599.59"
       width="20.05"
       height="25.7273"
       filterUnits="userSpaceOnUse"
       color-interpolation-filters="sRGB">
      <feFlood
         flood-opacity="0"
         result="BackgroundImageFix"
         id="feFlood1158" />
      <feColorMatrix
         in="SourceAlpha"
         type="matrix"
         values="0 0 0 0 0 0 0 0 0 0 0 0 0 0 0 0 0 0 127 0"
         id="feColorMatrix1160" />
      <feOffset
         dy="1"
         id="feOffset1162" />
      <feGaussianBlur
         stdDeviation="1"
         id="feGaussianBlur1164" />
      <feColorMatrix
         type="matrix"
         values="0 0 0 0 0 0 0 0 0 0 0 0 0 0 0 0 0 0 0.16 0"
         id="feColorMatrix1166" />
      <feBlend
         mode="normal"
         in2="BackgroundImageFix"
         result="effect1_dropShadow"
         id="feBlend1168" />
      <feColorMatrix
         in="SourceAlpha"
         type="matrix"
         values="0 0 0 0 0 0 0 0 0 0 0 0 0 0 0 0 0 0 127 0"
         id="feColorMatrix1170" />
      <feOffset
         id="feOffset1172" />
      <feGaussianBlur
         stdDeviation="0.5"
         id="feGaussianBlur1174" />
      <feColorMatrix
         type="matrix"
         values="0 0 0 0 0 0 0 0 0 0 0 0 0 0 0 0 0 0 0.16 0"
         id="feColorMatrix1176" />
      <feBlend
         mode="normal"
         in2="effect1_dropShadow"
         result="effect2_dropShadow"
         id="feBlend1178" />
      <feBlend
         mode="normal"
         in="SourceGraphic"
         in2="effect2_dropShadow"
         result="shape"
         id="feBlend1180" />
    </filter>
    <filter
       id="filter7_d"
       x="505.357"
       y="366.857"
       width="20.2857"
       height="20.2857"
       filterUnits="userSpaceOnUse"
       color-interpolation-filters="sRGB">
      <feFlood
         flood-opacity="0"
         result="BackgroundImageFix"
         id="feFlood1183" />
      <feColorMatrix
         in="SourceAlpha"
         type="matrix"
         values="0 0 0 0 0 0 0 0 0 0 0 0 0 0 0 0 0 0 127 0"
         id="feColorMatrix1185" />
      <feOffset
         dy="1"
         id="feOffset1187" />
      <feGaussianBlur
         stdDeviation="1"
         id="feGaussianBlur1189" />
      <feColorMatrix
         type="matrix"
         values="0 0 0 0 0 0 0 0 0 0 0 0 0 0 0 0 0 0 0.3 0"
         id="feColorMatrix1191" />
      <feBlend
         mode="normal"
         in2="BackgroundImageFix"
         result="effect1_dropShadow"
         id="feBlend1193" />
      <feBlend
         mode="normal"
         in="SourceGraphic"
         in2="effect1_dropShadow"
         result="shape"
         id="feBlend1195" />
    </filter>
    <filter
       id="filter8_d"
       x="950.357"
       y="571.857"
       width="20.2857"
       height="20.2857"
       filterUnits="userSpaceOnUse"
       color-interpolation-filters="sRGB">
      <feFlood
         flood-opacity="0"
         result="BackgroundImageFix"
         id="feFlood1198" />
      <feColorMatrix
         in="SourceAlpha"
         type="matrix"
         values="0 0 0 0 0 0 0 0 0 0 0 0 0 0 0 0 0 0 127 0"
         id="feColorMatrix1200" />
      <feOffset
         dy="1"
         id="feOffset1202" />
      <feGaussianBlur
         stdDeviation="1"
         id="feGaussianBlur1204" />
      <feColorMatrix
         type="matrix"
         values="0 0 0 0 0 0 0 0 0 0 0 0 0 0 0 0 0 0 0.3 0"
         id="feColorMatrix1206" />
      <feBlend
         mode="normal"
         in2="BackgroundImageFix"
         result="effect1_dropShadow"
         id="feBlend1208" />
      <feBlend
         mode="normal"
         in="SourceGraphic"
         in2="effect1_dropShadow"
         result="shape"
         id="feBlend1210" />
    </filter>
    <filter
       id="filter9_d"
       x="477.357"
       y="313.857"
       width="20.2857"
       height="20.2857"
       filterUnits="userSpaceOnUse"
       color-interpolation-filters="sRGB">
      <feFlood
         flood-opacity="0"
         result="BackgroundImageFix"
         id="feFlood1213" />
      <feColorMatrix
         in="SourceAlpha"
         type="matrix"
         values="0 0 0 0 0 0 0 0 0 0 0 0 0 0 0 0 0 0 127 0"
         id="feColorMatrix1215" />
      <feOffset
         dy="1"
         id="feOffset1217" />
      <feGaussianBlur
         stdDeviation="1"
         id="feGaussianBlur1219" />
      <feColorMatrix
         type="matrix"
         values="0 0 0 0 0 0 0 0 0 0 0 0 0 0 0 0 0 0 0.3 0"
         id="feColorMatrix1221" />
      <feBlend
         mode="normal"
         in2="BackgroundImageFix"
         result="effect1_dropShadow"
         id="feBlend1223" />
      <feBlend
         mode="normal"
         in="SourceGraphic"
         in2="effect1_dropShadow"
         result="shape"
         id="feBlend1225" />
    </filter>
    <filter
       id="filter10_d"
       x="903"
       y="85"
       width="376"
       height="881"
       filterUnits="userSpaceOnUse"
       color-interpolation-filters="sRGB">
      <feFlood
         flood-opacity="0"
         result="BackgroundImageFix"
         id="feFlood1228" />
      <feColorMatrix
         in="SourceAlpha"
         type="matrix"
         values="0 0 0 0 0 0 0 0 0 0 0 0 0 0 0 0 0 0 127 0"
         id="feColorMatrix1230" />
      <feOffset
         id="feOffset1232" />
      <feGaussianBlur
         stdDeviation="10"
         id="feGaussianBlur1234" />
      <feColorMatrix
         type="matrix"
         values="0 0 0 0 0 0 0 0 0 0 0 0 0 0 0 0 0 0 0.12 0"
         id="feColorMatrix1236" />
      <feBlend
         mode="normal"
         in2="BackgroundImageFix"
         result="effect1_dropShadow"
         id="feBlend1238" />
      <feBlend
         mode="normal"
         in="SourceGraphic"
         in2="effect1_dropShadow"
         result="shape"
         id="feBlend1240" />
    </filter>
    <filter
       id="filter11_d"
       x="195.833"
       y="408.5"
       width="24.1624"
       height="27.8333"
       filterUnits="userSpaceOnUse"
       color-interpolation-filters="sRGB">
      <feFlood
         flood-opacity="0"
         result="BackgroundImageFix"
         id="feFlood1243" />
      <feColorMatrix
         in="SourceAlpha"
         type="matrix"
         values="0 0 0 0 0 0 0 0 0 0 0 0 0 0 0 0 0 0 127 0"
         id="feColorMatrix1245" />
      <feOffset
         dy="1"
         id="feOffset1247" />
      <feGaussianBlur
         stdDeviation="1.5"
         id="feGaussianBlur1249" />
      <feColorMatrix
         type="matrix"
         values="0 0 0 0 0 0 0 0 0 0 0 0 0 0 0 0 0 0 0.2 0"
         id="feColorMatrix1251" />
      <feBlend
         mode="normal"
         in2="BackgroundImageFix"
         result="effect1_dropShadow"
         id="feBlend1253" />
      <feBlend
         mode="normal"
         in="SourceGraphic"
         in2="effect1_dropShadow"
         result="shape"
         id="feBlend1255" />
    </filter>
    <linearGradient
       id="paint0_linear"
       x1="523.643"
       y1="384.143"
       x2="523.643"
       y2="367.857"
       gradientUnits="userSpaceOnUse">
      <stop
         stop-color="#2679B2"
         id="stop1258" />
      <stop
         offset="1"
         stop-color="#309AE2"
         id="stop1260" />
    </linearGradient>
    <linearGradient
       id="paint1_linear"
       x1="968.643"
       y1="589.143"
       x2="968.643"
       y2="572.857"
       gradientUnits="userSpaceOnUse">
      <stop
         stop-color="#2679B2"
         id="stop1263" />
      <stop
         offset="1"
         stop-color="#309AE2"
         id="stop1265" />
    </linearGradient>
    <linearGradient
       id="paint2_linear"
       x1="479.319"
       y1="314.857"
       x2="479.319"
       y2="331.143"
       gradientUnits="userSpaceOnUse">
      <stop
         stop-color="white"
         id="stop1268" />
      <stop
         offset="1"
         stop-color="#E6E6E6"
         id="stop1270" />
    </linearGradient>
    <clipPath
       id="clip0">
      <rect
         width="376"
         height="861"
         fill="white"
         transform="translate(903 105)"
         id="rect1273" />
    </clipPath>
  </defs>
</svg>
